<svg xmlns="http://www.w3.org/2000/svg" width="69.432" height="98.004" viewBox="0 0 69.432 98.004">
  <g id="Group_19" data-name="Group 19" transform="translate(-767.15 -521.387)">
    <g id="Group_18" data-name="Group 18">
      <g id="Group_8" data-name="Group 8" transform="translate(767.15 521.387)">
        <path id="polygon2989" d="M144.065,100.62l-6.325,70.861-28.433,7.883-28.355-7.871L74.633,100.62Z" transform="translate(-74.633 -81.36)" fill="#264de4"/>
        <path id="polygon2991" d="M278.975,191.448l5.406-60.554H256v66.924Z" transform="translate(-221.284 -105.839)" fill="#2965f1"/>
        <path id="polygon2993" d="M150.31,268.217l.779,8.692H170.54v-8.692Z" transform="translate(-135.824 -216.877)" fill="#ebebeb"/>
        <path id="polygon2995" d="M163.928,176.3h-21.8l.79,8.692h21.006Z" transform="translate(-129.212 -142.558)" fill="#ebebeb"/>
        <path id="polygon2997" d="M175.472,354.913v-9.044l-.038.01-9.681-2.614-.619-6.932h-8.726l1.218,13.648,17.805,4.943Z" transform="translate(-140.756 -271.954)" fill="#ebebeb"/>
        <path id="path2999" d="M160,0h10.528V4.4H164.4v4.4h6.125v4.4H160Z" transform="translate(-143.66)" fill="#fff"/>
        <path id="path3001" d="M226,0h10.528V3.828H230.4v.766h6.125V13.4H226V9.379h6.125V8.614H226Z" transform="translate(-197.026)" fill="#fff"/>
        <path id="path3003" d="M292,0h10.528V3.828H296.4v.766h6.125V13.4H292V9.379h6.125V8.614H292Z" transform="translate(-250.393)" fill="#fff"/>
        <path id="polygon3005" d="M266.546,202.59l-1.009,11.273-9.695,2.617v9.043l17.819-4.939.131-1.469,2.043-22.884.212-2.334,1.569-17.593H255.843V185h12.248l-.791,8.9H255.843v8.692Z" transform="translate(-221.157 -142.558)" fill="#fff"/>
      </g>
    </g>
  </g>
</svg>
