<svg xmlns="http://www.w3.org/2000/svg" width="86.185" height="70.747" viewBox="0 0 86.185 70.747">
  <g id="Group_7" data-name="Group 7" transform="translate(0)">
    <path id="Path_213" data-name="Path 213" d="M13.133,57.381v-5.4a1.189,1.189,0,0,1,1.2-1.279h.208a1.188,1.188,0,0,1,1.2,1.279V63.345a7.136,7.136,0,0,1-3.837,6.379,7.326,7.326,0,0,1-3.689.984H7.7a7.349,7.349,0,0,1-6.52-3.753,6.914,6.914,0,0,1-1.006-3.61v-.506a7.144,7.144,0,0,1,3.835-6.381,7.3,7.3,0,0,1,3.69-.984H8.22a7.378,7.378,0,0,1,4.914,1.908ZM2.788,63.092a4.843,4.843,0,0,0,2.784,4.466,4.915,4.915,0,0,0,2.338.6,5.052,5.052,0,0,0,4.524-2.591,4.716,4.716,0,0,0,.7-2.522,4.855,4.855,0,0,0-2.268-4.094,4.947,4.947,0,0,0-2.9-.915,4.972,4.972,0,0,0-4.708,3A4.609,4.609,0,0,0,2.788,63.092Zm22.019-7.619h.362a7.428,7.428,0,0,1,6.786,4.021,6.755,6.755,0,0,1,.9,3.345v.506a7.128,7.128,0,0,1-3.838,6.379,7.344,7.344,0,0,1-3.689.984h-.517a7.348,7.348,0,0,1-6.52-3.753,6.915,6.915,0,0,1-1.007-3.61v-.506a7.161,7.161,0,0,1,3.835-6.381,7.267,7.267,0,0,1,3.692-.985Zm-4.915,7.619a4.9,4.9,0,0,0,2.651,4.377,4.922,4.922,0,0,0,2.575.685,5.012,5.012,0,0,0,4.421-2.593,4.674,4.674,0,0,0,.7-2.52,4.844,4.844,0,0,0-2.409-4.186,5.147,5.147,0,0,0-7.471,2.18,4.6,4.6,0,0,0-.465,2.058Zm23.816-4.857a4.987,4.987,0,0,0-1.559-.257,4.87,4.87,0,0,0-4.687,3.006A4.589,4.589,0,0,0,37,63.04,4.93,4.93,0,0,0,40.168,67.7a6.068,6.068,0,0,0,2.468.406,6.574,6.574,0,0,0,2.314-.709l.108-.05h.483l.053.011a1.143,1.143,0,0,1,1.042,1.115v.253c0,1.556-2.906,1.912-4.015,1.988a7.374,7.374,0,0,1-7.956-5.49,6.485,6.485,0,0,1-.281-1.925v-.506a7.157,7.157,0,0,1,3.835-6.378,7.27,7.27,0,0,1,3.691-.986h.518a6.754,6.754,0,0,1,3.824,1.155l.094.064.06.1a1.327,1.327,0,0,1,.231.673v.253c0,.652-.5,1-1.1,1.117l-.05.009h-.154a5.973,5.973,0,0,1-1.624-.555Zm8.472,1.73c1.015-.994,2.033-1.986,3.062-2.964.287-.273,1.373-1.427,1.8-1.427h.468l.053.011A1.142,1.142,0,0,1,58.607,56.7v.253c0,.427-.512.924-.794,1.217-.6.622-1.232,1.224-1.846,1.834l-3.156,3.134q2.038,2,4.064,4.008.561.556,1.113,1.12a2.82,2.82,0,0,1,.43.485,1.031,1.031,0,0,1,.189.578v.264l-.015.061a1.224,1.224,0,0,1-1.185,1.053H57.2c-.432,0-.92-.478-1.216-.752-.61-.563-1.2-1.154-1.8-1.729L52.181,66.3V69.38a1.19,1.19,0,0,1-1.2,1.279h-.206a1.189,1.189,0,0,1-1.2-1.279V52.034a1.187,1.187,0,0,1,1.2-1.276h.206a1.187,1.187,0,0,1,1.2,1.276Zm32.554-4.391h.26A1.224,1.224,0,0,1,86.3,56.853c0,1.058-1.034,1.329-1.928,1.329a4.731,4.731,0,0,0-3.1,1.474,4.81,4.81,0,0,0-1.449,3.588v6.187a1.189,1.189,0,0,1-1.2,1.278h-.206a1.188,1.188,0,0,1-1.2-1.278V62.889a7.143,7.143,0,0,1,3.334-6,7.292,7.292,0,0,1,4.193-1.313ZM66.17,67.835a6.241,6.241,0,0,0,3.009.112,6.9,6.9,0,0,1,2.244-.672l.073.012.067.032a1.463,1.463,0,0,1,.706.613,1.211,1.211,0,0,1-.494,1.72l-.223.126a7.592,7.592,0,0,1-7.583-.1A6.957,6.957,0,0,1,61.22,67l-.156-.264a7.415,7.415,0,0,1,2.793-10.2l.358-.2a7.505,7.505,0,0,1,7.23-.071A7.015,7.015,0,0,1,74.5,59.029l.129.22c.522.886-.154,1.658-.853,2.185-.811.612-1.63,1.349-2.407,2.005q-2.6,2.2-5.2,4.4Zm-2.243-1.542q2.907-2.439,5.81-4.886c.661-.557,1.385-1.136,2.04-1.722a5.171,5.171,0,0,0-2.151-1.394,5.025,5.025,0,0,0-4.374.407,4.81,4.81,0,0,0-2.511,4.673,4.415,4.415,0,0,0,.679,2.244A5.917,5.917,0,0,0,63.927,66.294Zm-14.1-51.211h7.708v7.709h3.9a17.239,17.239,0,0,0,5.355-.879,13.864,13.864,0,0,0,2.6-1.151,9.326,9.326,0,0,1-1.807-4.875c-.222-2.353.263-5.416,1.89-7.257l.81-.917.965.76c2.431,1.911,4.475,4.581,4.835,7.624a12.014,12.014,0,0,1,8.943.814l1.058.6-.557,1.064c-2.182,4.166-6.744,5.457-11.2,5.228-6.673,16.262-21.2,23.961-38.817,23.961-9.1,0-17.45-3.329-22.205-11.229l-.078-.129-.693-1.379a21.451,21.451,0,0,1-1.779-11.094l.109-1.14h6.591V15.083h7.707V7.541H40.582V0h9.249Z" transform="translate(-0.115 0)" fill="#1d91b4" fill-rule="evenodd"/>
    <path id="Path_214" data-name="Path 214" d="M97.67,37.52c.515-4.1-2.479-7.328-4.335-8.859-2.139,2.538-2.472,9.189.885,11.99-1.873,1.707-5.82,3.254-9.861,3.254H35.166a21.754,21.754,0,0,0,2.039,11.727l.56,1.051a19.52,19.52,0,0,0,1.16,1.786q3.034.2,5.593.141h0a26.779,26.779,0,0,0,8.161-1.219.588.588,0,0,1,.734.381.611.611,0,0,1-.347.765c-.276.1-.563.19-.86.277h0a25.066,25.066,0,0,1-5.641.943c.134,0-.14.021-.14.021-.077.005-.174.017-.251.021-.889.051-1.848.062-2.829.062-1.073,0-2.129-.021-3.311-.083L40,59.8c4.1,4.727,10.508,7.562,18.541,7.562,17,0,31.423-7.734,37.809-25.1,4.53.477,8.885-.709,10.865-4.676a10.445,10.445,0,0,0-9.548-.068" transform="translate(-22.986 -18.789)" fill="#22a0c8" fill-rule="evenodd"/>
    <path id="Path_215" data-name="Path 215" d="M105.173,37.52c.528-4.1-2.543-7.328-4.448-8.859-2.2,2.538-2.536,9.189.908,11.99-1.922,1.707-5.972,3.254-10.119,3.254H44.025c-.206,6.629,2.254,11.661,6.607,14.7h0a28.138,28.138,0,0,0,8.374-1.219.607.607,0,0,1,.4,1.146c-.283.1-.578.19-.882.277h0a27.686,27.686,0,0,1-5.943.984l-.057-.053c5.937,3.046,14.546,3.035,24.417-.757A68.621,68.621,0,0,0,105.489,37.37q-.162.073-.316.15" transform="translate(-30.738 -18.789)" fill="#37b1d9" fill-rule="evenodd"/>
    <path id="Path_216" data-name="Path 216" d="M35.645,88.186a20.176,20.176,0,0,0,2,6.467l.574,1.051a19.437,19.437,0,0,0,1.19,1.786q3.114.2,5.74.141a28.138,28.138,0,0,0,8.374-1.219.607.607,0,0,1,.4,1.146c-.283.1-.578.19-.882.277h0A27.694,27.694,0,0,1,47.1,98.8c-.08,0-.218.006-.3.01-.911.051-1.886.082-2.893.082-1.1,0-2.226-.021-3.438-.083,4.206,4.727,10.823,7.573,19.066,7.573,14.935,0,27.93-5.669,35.471-18.195Z" transform="translate(-23.367 -59.524)" fill="#1b81a5" fill-rule="evenodd"/>
    <path id="Path_217" data-name="Path 217" d="M45.367,88.186A15.158,15.158,0,0,0,51.52,97.63a28.138,28.138,0,0,0,8.374-1.219.607.607,0,0,1,.4,1.146c-.283.1-.578.19-.882.277h0a28.109,28.109,0,0,1-5.974.964c5.937,3.045,14.521,3,24.391-.79A64.462,64.462,0,0,0,94.7,88.186Z" transform="translate(-30.501 -59.372)" fill="#1d91b4" fill-rule="evenodd"/>
    <path id="Path_218" data-name="Path 218" d="M55.26,34.553h6.826V41.38H55.26Zm.569.569h.539v5.689h-.539Zm1.013,0h.56v5.689h-.56V35.122Zm1.034,0h.56v5.689h-.56Zm1.035,0h.56v5.689h-.56Zm1.034,0h.56v5.689h-.56Zm1.034,0h.539v5.689h-.539Zm2.158-8.445h6.827V33.5H63.136V26.677Zm.569.569h.538v5.688h-.538Zm1.013,0h.56v5.688h-.56V27.246Zm1.034,0h.56v5.688h-.56Zm1.034,0h.56v5.688h-.56Zm1.034,0h.56v5.688h-.56Zm1.034,0h.539v5.688h-.539Z" transform="translate(-36.715 -17.488)" fill="#23a3c2" fill-rule="evenodd"/>
    <path id="Path_219" data-name="Path 219" d="M78.125,49.543h6.827v6.826H78.125V49.543Zm.569.569h.538V55.8h-.538Zm1.013,0h.56V55.8h-.56V50.112Zm1.034,0h.56V55.8h-.56Zm1.034,0h.56V55.8h-.56Zm1.034,0h.56V55.8h-.56Zm1.034,0h.539V55.8h-.539Z" transform="translate(-51.839 -33.277)" fill="#34bbde" fill-rule="evenodd"/>
    <path id="Path_220" data-name="Path 220" d="M100.993,49.543h6.826v6.826h-6.826Zm.569.569h.538V55.8h-.538Zm1.013,0h.56V55.8h-.56Zm1.034,0h.56V55.8h-.56Zm1.034,0h.56V55.8h-.56Zm1.034,0h.561V55.8h-.561Zm1.034,0h.539V55.8h-.539Z" transform="translate(-67.013 -33.277)" fill="#23a3c2" fill-rule="evenodd"/>
    <path id="Path_221" data-name="Path 221" d="M100.993,26.677h6.826V33.5h-6.826Zm.569.569h.538v5.688h-.538Zm1.013,0h.56v5.688h-.56Zm1.034,0h.56v5.688h-.56Zm1.034,0h.56v5.688h-.56Zm1.034,0h.561v5.688h-.561Zm1.034,0h.539v5.688h-.539Zm2.158,7.307H115.7V41.38h-6.826Zm.569.569h.538v5.689h-.538Zm1.013,0h.56v5.689h-.56Zm1.034,0h.56v5.689h-.56Zm1.034,0h.56v5.689h-.56Zm1.034,0h.56v5.689h-.56Zm1.034,0h.539v5.689h-.539Z" transform="translate(-67.099 -17.488)" fill="#34bbde" fill-rule="evenodd"/>
    <path id="Path_222" data-name="Path 222" d="M123.859,26.677h6.826V33.5h-6.826Zm.569.569h.538v5.688h-.538Zm1.013,0H126v5.688h-.56Zm1.034,0h.56v5.688h-.56Zm1.034,0h.56v5.688h-.56Zm1.034,0h.56v5.688h-.56Zm1.034,0h.539v5.688h-.539Z" transform="translate(-82.185 -17.488)" fill="#23a3c2" fill-rule="evenodd"/>
    <path id="Path_223" data-name="Path 223" d="M123.859,3.81h6.826v6.827h-6.826Zm.569.569h.538v5.689h-.538V4.378Zm1.013,0H126v5.689h-.56V4.378Zm1.034,0h.56v5.689h-.56V4.378Zm1.034,0h.56v5.689h-.56V4.378Zm1.034,0h.56v5.689h-.56V4.378Zm1.034,0h.539v5.689h-.539V4.378Z" transform="translate(-82.185 -2.498)" fill="#34bbde" fill-rule="evenodd"/>
    <path id="Path_224" data-name="Path 224" d="M146.725,49.543h6.826v6.826h-6.826Zm.568.569h.539V55.8h-.539V50.112Zm1.013,0h.56V55.8h-.56V50.112Zm1.035,0h.56V55.8h-.56Zm1.034,0h.56V55.8h-.56Zm1.035,0h.56V55.8h-.56Zm1.034,0h.539V55.8h-.539Z" transform="translate(-97.358 -33.277)" fill="#23a3c2" fill-rule="evenodd"/>
    <path id="Path_225" data-name="Path 225" d="M93.119,101.492a1.883,1.883,0,1,1-1.884,1.883,1.883,1.883,0,0,1,1.884-1.883" transform="translate(-60.512 -68.099)" fill="#d3ecec" fill-rule="evenodd"/>
    <path id="Path_226" data-name="Path 226" d="M32.593,87.676a1.289,1.289,0,0,1,.478.091.556.556,0,0,0-.25.618.534.534,0,0,0,.991.122,1.368,1.368,0,0,1-.381,1.559,1.3,1.3,0,0,1-1.57.08,1.364,1.364,0,0,1-.53-1.513,1.323,1.323,0,0,1,1.262-.958M0,83.239H85.719c-1.866-.484-5.9-1.137-5.239-3.637-3.394,4.014-11.578,2.816-13.644.837-2.3,3.409-15.691,2.113-16.625-.543-2.884,3.459-11.819,3.459-14.7,0-.935,2.656-14.325,3.952-16.625.543C16.818,82.418,8.634,83.616,5.24,79.6,5.906,82.1,1.867,82.756,0,83.24" transform="translate(0 -53.548)" fill="#364548" fill-rule="evenodd"/>
    <path id="Path_227" data-name="Path 227" d="M70.463,124.7a16.588,16.588,0,0,1-8.648-8.506,28.892,28.892,0,0,1-6.235.946q-1.367.076-2.876.077-1.74,0-3.666-.1c4.277,4.275,9.539,7.566,19.281,7.625q1.079,0,2.144-.041" transform="translate(-32.624 -78.097)" fill="#bdd9d7" fill-rule="evenodd"/>
    <path id="Path_228" data-name="Path 228" d="M76,119.225a16.349,16.349,0,0,1-1.731-3.031,28.873,28.873,0,0,1-6.236.947A19.853,19.853,0,0,0,76,119.225" transform="translate(-45.149 -77.945)" fill="#d3ecec" fill-rule="evenodd"/>
  </g>
</svg>
