<svg xmlns="http://www.w3.org/2000/svg" width="97.49" height="21.756" viewBox="0 0 97.49 21.756">
  <g id="expressjs-ar21" transform="translate(0)">
    <path id="Path_229" data-name="Path 229" d="M34.492,64.48V43.151H35.65v3.355a4.388,4.388,0,0,0,.378-.473,5.734,5.734,0,0,1,5.23-3.245A6.142,6.142,0,0,1,47.3,46.034a10.428,10.428,0,0,1,.252,9.562c-1.174,2.631-4.072,3.938-7.175,3.458A5.8,5.8,0,0,1,35.744,56V64.48ZM35.65,50.7c.1,1.04.142,1.78.26,2.5.457,2.851,2.142,4.545,4.789,4.852A5.443,5.443,0,0,0,46.677,54.6a9.27,9.27,0,0,0-.2-7.624,5.332,5.332,0,0,0-5.616-3.1A5.191,5.191,0,0,0,36.217,47.7,26.3,26.3,0,0,0,35.65,50.7Z" transform="translate(-4.247 -42.724)" fill="#fff"/>
    <path id="Path_230" data-name="Path 230" d="M74.139,53.594a6.238,6.238,0,0,1-6.1,5.513c-4.852.244-7.128-2.977-7.49-6.695A10.727,10.727,0,0,1,61.5,46.5a6.592,6.592,0,0,1,6.86-3.678,6.3,6.3,0,0,1,5.592,4.8,32.363,32.363,0,0,1,.543,3.544H61.741c-.236,3.371,1.575,6.081,4.143,6.734,3.2.788,5.931-.6,6.923-3.639C73.028,53.483,73.43,53.373,74.139,53.594Zm-12.4-3.5h11.4c-.071-3.592-2.308-6.191-5.34-6.23C64.364,43.8,61.891,46.308,61.741,50.089Z" transform="translate(-6.182 -42.723)" fill="#fff"/>
    <path id="Path_231" data-name="Path 231" d="M77.775,53.669h1.118a4.482,4.482,0,0,0,2.631,3.859,6.876,6.876,0,0,0,5.97-.158,2.686,2.686,0,0,0,1.575-2.639A2.434,2.434,0,0,0,87.431,52.3c-1.229-.457-2.536-.709-3.789-1.111a27.764,27.764,0,0,1-3.812-1.394c-2.016-.985-2.142-4.82.142-6.033a8.042,8.042,0,0,1,7.687-.118,4.048,4.048,0,0,1,2.048,4.127h-.961c0-.047-.087-.087-.087-.134-.118-3.064-2.686-4.009-5.443-3.741a7.223,7.223,0,0,0-2.363.717,2.522,2.522,0,0,0,.2,4.584c1.213.441,2.481.725,3.726,1.071,1,.276,2.04.457,3.009.788a3.552,3.552,0,0,1,2.442,3.206A3.789,3.789,0,0,1,88.2,58.2c-2.631,1.489-6.963,1.095-8.892-.788a5.253,5.253,0,0,1-1.528-3.741Z" transform="translate(-7.471 -42.72)" fill="#fff"/>
    <path id="Path_232" data-name="Path 232" d="M105.6,47.772H104.55a2.6,2.6,0,0,0-.071-.386,3.426,3.426,0,0,0-2.788-3.292,6.876,6.876,0,0,0-4.419.213,2.686,2.686,0,0,0-1.945,2.56,2.473,2.473,0,0,0,1.89,2.489c1.575.488,3.19.788,4.789,1.229a13.389,13.389,0,0,1,1.528.465,3.938,3.938,0,0,1,.213,7.333,8.766,8.766,0,0,1-7.089.071A4.915,4.915,0,0,1,93.7,53.679h1.024a5.742,5.742,0,0,0,8.743,3.655,2.812,2.812,0,0,0,1.512-2.631,2.434,2.434,0,0,0-1.662-2.418c-1.229-.457-2.536-.7-3.789-1.1A27.906,27.906,0,0,1,95.689,49.8c-1.969-.969-2.127-4.773.118-5.986a7.931,7.931,0,0,1,7.813-.087A4.119,4.119,0,0,1,105.6,47.772Z" transform="translate(-8.656 -42.722)" fill="#fff"/>
    <path id="Path_233" data-name="Path 233" d="M31.318,58.745a1.8,1.8,0,0,1-2.237-.851c-1.284-1.922-2.7-3.757-4.064-5.632l-.591-.788C22.8,53.649,21.181,55.736,19.7,57.9a1.733,1.733,0,0,1-2.127.835l6.088-8.168L18,43.189a1.882,1.882,0,0,1,2.245.788c1.315,1.922,2.772,3.757,4.222,5.7,1.457-1.93,2.9-3.773,4.245-5.679a1.693,1.693,0,0,1,2.111-.788l-2.2,2.914c-.985,1.3-1.953,2.607-2.977,3.875a.788.788,0,0,0,0,1.174c1.882,2.5,3.749,5,5.671,7.569Z" transform="translate(-2.987 -42.746)" fill="#fff"/>
    <path id="Path_234" data-name="Path 234" d="M59.774,43.113v1.1a5.71,5.71,0,0,0-6.081,5.9v8.664H52.568v-15.6h1.1v3.2C55.033,44.042,57.136,43.176,59.774,43.113Z" transform="translate(-5.593 -42.749)" fill="#fff"/>
    <path id="Path_235" data-name="Path 235" d="M1.813,50.44c.165-.788.268-1.646.5-2.45a6.82,6.82,0,0,1,10.735-3.859c2.237,1.756,2.8,4.245,2.686,7.049H3.128c-.2,5.009,3.41,8.034,8.034,6.49a4.8,4.8,0,0,0,3.048-3.395c.244-.788.638-.922,1.386-.693a6.4,6.4,0,0,1-3.056,4.671,7.4,7.4,0,0,1-8.625-1.1A7.758,7.758,0,0,1,1.978,52.6a3.773,3.773,0,0,0-.158-.788q-.008-.7-.008-1.37ZM3.144,50.1h11.4c-.071-3.631-2.363-6.207-5.419-6.23-3.4-.047-5.836,2.473-5.986,6.214Z" transform="translate(-1.813 -42.72)" fill="#fff"/>
  </g>
</svg>
