<svg xmlns="http://www.w3.org/2000/svg" width="38.715" height="26.044" viewBox="0 0 38.715 26.044">
  <path id="iconfinder_icon-menu_2867922" d="M5.151,5H39.564a2.021,2.021,0,0,1,2.151,1.86,2.021,2.021,0,0,1-2.151,1.86H5.151A2.021,2.021,0,0,1,3,6.86,2.021,2.021,0,0,1,5.151,5Zm0,11.162H39.564a2.021,2.021,0,0,1,2.151,1.86,2.021,2.021,0,0,1-2.151,1.86H5.151A2.021,2.021,0,0,1,3,18.022,2.021,2.021,0,0,1,5.151,16.162Zm0,11.162H39.564a2.021,2.021,0,0,1,2.151,1.86,2.021,2.021,0,0,1-2.151,1.86H5.151A2.021,2.021,0,0,1,3,29.184,2.021,2.021,0,0,1,5.151,27.323Z" transform="translate(-3 -5)" fill="#fff"/>
</svg>
