<svg xmlns="http://www.w3.org/2000/svg" xmlns:xlink="http://www.w3.org/1999/xlink" width="68.858" height="96.412" viewBox="0 0 68.858 96.412">
  <defs>
    <clipPath id="clip-path">
      <path id="Path_208" data-name="Path 208" d="M197.2,225.968l-2.684,1.549a.324.324,0,0,0-.162.281v3.1a.324.324,0,0,0,.162.281l2.684,1.551a.325.325,0,0,0,.324,0l2.684-1.551a.325.325,0,0,0,.162-.281v-3.1a.324.324,0,0,0-.162-.281l-2.684-1.549a.326.326,0,0,0-.325,0" transform="translate(-194.354 -225.925)"/>
    </clipPath>
    <linearGradient id="linear-gradient" x1="-0.847" y1="-1.034" x2="-0.838" y2="-1.034" gradientUnits="objectBoundingBox">
      <stop offset="0.3" stop-color="#3e863d"/>
      <stop offset="0.5" stop-color="#55934f"/>
      <stop offset="0.8" stop-color="#5aad45"/>
    </linearGradient>
    <clipPath id="clip-path-2">
      <path id="Path_210" data-name="Path 210" d="M195.4,231.231a.325.325,0,0,0,.1.084l2.3,1.33.384.22a.326.326,0,0,0,.187.042.331.331,0,0,0,.064-.012l2.831-5.184a.321.321,0,0,0-.075-.06l-1.758-1.015-.929-.535a.339.339,0,0,0-.084-.034Zm0,0" transform="translate(-195.398 -226.069)"/>
    </clipPath>
    <linearGradient id="linear-gradient-2" x1="-0.742" y1="-0.932" x2="-0.737" y2="-0.932" gradientUnits="objectBoundingBox">
      <stop offset="0.57" stop-color="#3e863d"/>
      <stop offset="0.72" stop-color="#619857"/>
      <stop offset="1" stop-color="#76ac64"/>
    </linearGradient>
    <clipPath id="clip-path-3">
      <path id="Path_212" data-name="Path 212" d="M199.827,225.935a.327.327,0,0,0-.13.042l-2.677,1.545,2.886,5.257a.322.322,0,0,0,.115-.04l2.684-1.551a.325.325,0,0,0,.157-.221l-2.942-5.026a.337.337,0,0,0-.066-.007h-.027" transform="translate(-197.021 -225.934)"/>
    </clipPath>
    <linearGradient id="linear-gradient-3" x1="-2.148" y1="-2.103" x2="-2.138" y2="-2.103" gradientUnits="objectBoundingBox">
      <stop offset="0.16" stop-color="#6bbf47"/>
      <stop offset="0.38" stop-color="#79b461"/>
      <stop offset="0.47" stop-color="#75ac64"/>
      <stop offset="0.7" stop-color="#659e5a"/>
      <stop offset="0.9" stop-color="#3e863d"/>
    </linearGradient>
  </defs>
  <g id="Group_21" data-name="Group 21" transform="translate(-678.643 -521.089)">
    <g id="Group_20" data-name="Group 20">
      <g id="Group_4" data-name="Group 4" transform="translate(719.317 552.679)">
        <path id="Path_203" data-name="Path 203" d="M173.355,168.853a.536.536,0,0,1-.267-.071l-.85-.5c-.127-.071-.065-.1-.023-.111a1.716,1.716,0,0,0,.384-.175.064.064,0,0,1,.063,0l.653.387a.086.086,0,0,0,.079,0l2.545-1.469a.08.08,0,0,0,.039-.069v-2.937a.082.082,0,0,0-.039-.07l-2.544-1.468a.078.078,0,0,0-.078,0l-2.544,1.468a.081.081,0,0,0-.04.069v2.937a.078.078,0,0,0,.04.068l.7.4c.378.189.61-.034.61-.258v-2.9a.073.073,0,0,1,.074-.073h.322a.073.073,0,0,1,.073.073v2.9a.706.706,0,0,1-.754.794,1.091,1.091,0,0,1-.587-.159l-.668-.385a.538.538,0,0,1-.267-.464v-2.937a.535.535,0,0,1,.267-.464l2.548-1.47a.558.558,0,0,1,.535,0l2.545,1.471a.537.537,0,0,1,.267.464v2.937a.539.539,0,0,1-.267.464l-2.545,1.47a.535.535,0,0,1-.268.071" transform="translate(-159.424 -151.591)" fill="#689f63"/>
        <path id="Path_204" data-name="Path 204" d="M211.189,186.729c-1.114,0-1.347-.511-1.347-.94a.073.073,0,0,1,.074-.073h.329a.074.074,0,0,1,.073.062c.05.335.2.5.871.5.536,0,.765-.121.765-.406,0-.164-.065-.285-.9-.367-.7-.069-1.128-.222-1.128-.78,0-.514.433-.819,1.159-.819.815,0,1.219.283,1.27.891a.074.074,0,0,1-.02.057.076.076,0,0,1-.054.024h-.331a.073.073,0,0,1-.071-.057c-.08-.352-.272-.465-.8-.465-.586,0-.654.2-.654.357,0,.185.08.24.87.344s1.154.25,1.154.8-.463.872-1.269.872m3.1-3.115h.085a.074.074,0,0,0,.083-.078c0-.075-.052-.075-.08-.075h-.088Zm-.1-.241h.189c.065,0,.192,0,.192.145a.126.126,0,0,1-.1.135c.076.005.081.055.091.125a.537.537,0,0,0,.029.145h-.117c0-.025-.021-.166-.021-.173-.008-.031-.018-.047-.057-.047h-.1v.22h-.106Zm-.227.274a.411.411,0,1,0,.41-.41.412.412,0,0,0-.41.41m.9,0a.491.491,0,1,1-.491-.491.492.492,0,0,1,.491.491" transform="translate(-196.472 -171.491)" fill="#689f63"/>
        <path id="Path_205" data-name="Path 205" d="M6.049,5.769a.326.326,0,0,0-.163-.283l-2.7-1.553a.315.315,0,0,0-.148-.043H3.011a.321.321,0,0,0-.149.043L.163,5.486A.328.328,0,0,0,0,5.77L.006,9.952a.161.161,0,0,0,.081.141.154.154,0,0,0,.162,0l1.6-.919a.329.329,0,0,0,.163-.283V6.937a.325.325,0,0,1,.163-.282l.683-.393a.324.324,0,0,1,.163-.044.318.318,0,0,1,.162.044l.683.393a.325.325,0,0,1,.163.282V8.891a.33.33,0,0,0,.163.283l1.6.918a.159.159,0,0,0,.163,0,.164.164,0,0,0,.081-.141ZM18.783,7.947a.081.081,0,0,1-.041.07l-.927.534a.082.082,0,0,1-.081,0l-.927-.534a.081.081,0,0,1-.041-.07V6.877a.082.082,0,0,1,.04-.071l.926-.535a.082.082,0,0,1,.082,0l.927.535a.081.081,0,0,1,.041.071Zm.25-7.926a.163.163,0,0,0-.242.143V4.3a.114.114,0,0,1-.171.1l-.676-.389a.325.325,0,0,0-.326,0l-2.7,1.558a.325.325,0,0,0-.163.282V8.971a.326.326,0,0,0,.163.282l2.7,1.559a.327.327,0,0,0,.326,0l2.7-1.56a.327.327,0,0,0,.163-.282V1.2a.327.327,0,0,0-.168-.285Zm8.989,6.828a.326.326,0,0,0,.162-.282V5.811a.326.326,0,0,0-.162-.282L25.34,3.972a.326.326,0,0,0-.327,0l-2.7,1.558a.325.325,0,0,0-.163.282V8.928a.327.327,0,0,0,.164.284L25,10.74a.325.325,0,0,0,.32,0l1.622-.9a.163.163,0,0,0,0-.284L24.225,8a.162.162,0,0,1-.082-.141V6.88a.162.162,0,0,1,.082-.141l.845-.487a.161.161,0,0,1,.162,0l.845.487a.162.162,0,0,1,.082.141v.768a.163.163,0,0,0,.245.141Zm0,0" transform="translate(0 0)" fill-rule="evenodd"/>
        <path id="Path_206" data-name="Path 206" d="M386.463,105.076a.062.062,0,0,1,.062,0l.518.3a.063.063,0,0,1,.031.054v.6a.063.063,0,0,1-.031.054l-.518.3a.062.062,0,0,1-.062,0l-.518-.3a.062.062,0,0,1-.032-.054v-.6a.062.062,0,0,1,.031-.054Zm0,0" transform="translate(-361.325 -98.373)" fill="#689f63" fill-rule="evenodd"/>
        <g id="Group_1" data-name="Group 1" transform="translate(7.394 3.944)" clip-path="url(#clip-path)">
          <path id="Path_207" data-name="Path 207" d="M163.22,192.31l-7.564-3.707-3.878,7.912,7.564,3.708Zm0,0" transform="translate(-154.491 -190.981)" fill="url(#linear-gradient)"/>
        </g>
        <g id="Group_2" data-name="Group 2" transform="translate(7.46 3.954)" clip-path="url(#clip-path-2)">
          <path id="Path_209" data-name="Path 209" d="M144.07,187.319l5.341,7.228,7.063-5.218-5.341-7.228Zm0,0" transform="translate(-147.34 -184.902)" fill="url(#linear-gradient-2)"/>
        </g>
        <g id="Group_3" data-name="Group 3" transform="translate(7.564 3.945)" clip-path="url(#clip-path-3)">
          <path id="Path_211" data-name="Path 211" d="M197.02,225.934v6.845h5.841v-6.845Zm0,0" transform="translate(-197.02 -225.934)" fill="url(#linear-gradient-3)"/>
        </g>
      </g>
      <path id="Path_236" data-name="Path 236" d="M108.4,0h4.331V4.293h3.992V0h4.331V12.993h-4.331V8.662h-3.954v4.331H108.4m18.378-8.662h-3.823V0h11.995V4.331h-3.841v8.662h-4.331M136.853,0h4.538l2.787,4.576L146.965,0H151.5V12.993h-4.331V6.553l-3.032,4.67-3.032-4.67v6.44h-4.256M153.649,0h4.331V8.7h6.139v4.293h-10.47" transform="translate(576.608 521.089)" fill="#fff"/>
      <path id="Path_237" data-name="Path 237" d="M80.814,170.348,74.6,100.6h68.317L136.7,170.31l-28,7.758" transform="translate(604.043 439.432)" fill="#e44d26"/>
      <path id="Path_238" data-name="Path 238" d="M256,196.812V131h27.925L278.6,190.5" transform="translate(456.801 414.756)" fill="#f16529"/>
      <path id="Path_239" data-name="Path 239" d="M142,176.3h21.467v8.549H151.378l.791,8.756h11.3v8.53H144.335m.377,4.293H153.3l.6,6.835,9.566,2.561v8.926l-17.55-4.9" transform="translate(549.335 377.987)" fill="#ebebeb"/>
      <path id="Path_240" data-name="Path 240" d="M277.229,176.3H255.8v8.549h20.638m-.772,8.756H255.8v8.549h10.545l-1,11.11-9.547,2.561v8.888l17.512-4.858" transform="translate(456.964 377.987)" fill="#fff"/>
    </g>
  </g>
</svg>
