<svg xmlns="http://www.w3.org/2000/svg" xmlns:xlink="http://www.w3.org/1999/xlink" width="125.527" height="76.879" viewBox="0 0 125.527 76.879">
  <defs>
    <clipPath id="clip-path">
      <path id="Path_246" data-name="Path 246" d="M207.031,226.118l-11.955,6.9a1.443,1.443,0,0,0-.722,1.25v13.81a1.443,1.443,0,0,0,.722,1.25l11.956,6.906a1.447,1.447,0,0,0,1.444,0l11.954-6.906a1.446,1.446,0,0,0,.721-1.25v-13.81a1.443,1.443,0,0,0-.724-1.25l-11.952-6.9a1.453,1.453,0,0,0-1.447,0" transform="translate(-194.354 -225.925)"/>
    </clipPath>
    <linearGradient id="linear-gradient" x1="-0.847" y1="-1.034" x2="-0.838" y2="-1.034" gradientUnits="objectBoundingBox">
      <stop offset="0.3" stop-color="#3e863d"/>
      <stop offset="0.5" stop-color="#55934f"/>
      <stop offset="0.8" stop-color="#5aad45"/>
    </linearGradient>
    <clipPath id="clip-path-2">
      <path id="Path_248" data-name="Path 248" d="M195.4,249.058a1.447,1.447,0,0,0,.426.373l10.255,5.924,1.708.982a1.449,1.449,0,0,0,.833.189,1.474,1.474,0,0,0,.284-.052l12.609-23.087a1.429,1.429,0,0,0-.336-.267l-7.828-4.52-4.138-2.381a1.509,1.509,0,0,0-.375-.15Zm0,0" transform="translate(-195.398 -226.069)"/>
    </clipPath>
    <linearGradient id="linear-gradient-2" x1="-0.742" y1="-0.932" x2="-0.737" y2="-0.932" gradientUnits="objectBoundingBox">
      <stop offset="0.57" stop-color="#3e863d"/>
      <stop offset="0.72" stop-color="#619857"/>
      <stop offset="1" stop-color="#76ac64"/>
    </linearGradient>
    <clipPath id="clip-path-3">
      <path id="Path_250" data-name="Path 250" d="M209.519,225.939a1.458,1.458,0,0,0-.577.185L197.021,233l12.854,23.413a1.434,1.434,0,0,0,.514-.177l11.955-6.906a1.449,1.449,0,0,0,.7-.986l-13.1-22.386a1.5,1.5,0,0,0-.292-.029c-.04,0-.079,0-.119.006" transform="translate(-197.021 -225.934)"/>
    </clipPath>
    <linearGradient id="linear-gradient-3" x1="-2.148" y1="-2.103" x2="-2.138" y2="-2.103" gradientUnits="objectBoundingBox">
      <stop offset="0.16" stop-color="#6bbf47"/>
      <stop offset="0.38" stop-color="#79b461"/>
      <stop offset="0.47" stop-color="#75ac64"/>
      <stop offset="0.7" stop-color="#659e5a"/>
      <stop offset="0.9" stop-color="#3e863d"/>
    </linearGradient>
  </defs>
  <g id="Group_17" data-name="Group 17" transform="translate(0)">
    <g id="Group_16" data-name="Group 16" transform="translate(0)">
      <g id="Group_13" data-name="Group 13" transform="translate(32.93 17.567)">
        <g id="Group_9" data-name="Group 9" clip-path="url(#clip-path)">
          <path id="Path_245" data-name="Path 245" d="M202.737,205.115,169.051,188.6l-17.273,35.236,33.686,16.513Zm0,0" transform="translate(-163.859 -199.194)" fill="url(#linear-gradient)"/>
        </g>
      </g>
      <g id="Group_15" data-name="Group 15">
        <g id="Group_14" data-name="Group 14">
          <g id="Group_10" data-name="Group 10" transform="translate(33.226 17.608)" clip-path="url(#clip-path-2)">
            <path id="Path_247" data-name="Path 247" d="M144.07,205.342l23.786,32.194,31.458-23.242L175.526,182.1Zm0,0" transform="translate(-158.635 -194.577)" fill="url(#linear-gradient-2)"/>
          </g>
          <g id="Group_12" data-name="Group 12">
            <path id="Path_241" data-name="Path 241" d="M184,192.843a2.386,2.386,0,0,1-1.189-.318l-3.785-2.241c-.565-.316-.289-.428-.1-.492a7.642,7.642,0,0,0,1.711-.78.287.287,0,0,1,.282.02l2.907,1.725a.384.384,0,0,0,.351,0l11.336-6.544a.357.357,0,0,0,.173-.306V170.826a.364.364,0,0,0-.175-.312l-11.332-6.538a.349.349,0,0,0-.349,0L172.5,170.514a.361.361,0,0,0-.18.309V183.9a.349.349,0,0,0,.176.3L175.6,186c1.686.843,2.716-.15,2.716-1.149V171.941a.323.323,0,0,1,.329-.326h1.436a.325.325,0,0,1,.326.326v12.917c0,2.247-1.226,3.538-3.357,3.538a4.86,4.86,0,0,1-2.613-.709l-2.974-1.714a2.4,2.4,0,0,1-1.189-2.069V170.823a2.382,2.382,0,0,1,1.189-2.066l11.348-6.546a2.486,2.486,0,0,1,2.384,0l11.333,6.549a2.392,2.392,0,0,1,1.189,2.066v13.081a2.4,2.4,0,0,1-1.189,2.066l-11.333,6.546a2.383,2.383,0,0,1-1.195.318" transform="translate(-121.956 -115.964)" fill="#689f63"/>
            <path id="Path_242" data-name="Path 242" d="M215.842,199.052c-4.96,0-6-2.277-6-4.187a.326.326,0,0,1,.328-.326h1.464a.328.328,0,0,1,.323.278c.221,1.492.88,2.245,3.879,2.245,2.389,0,3.405-.54,3.405-1.807,0-.729-.289-1.271-4-1.634-3.1-.306-5.023-.99-5.023-3.473,0-2.287,1.93-3.649,5.162-3.649,3.629,0,5.428,1.26,5.655,3.967a.33.33,0,0,1-.088.253.337.337,0,0,1-.241.1h-1.473a.325.325,0,0,1-.318-.255c-.355-1.569-1.212-2.071-3.541-2.071-2.608,0-2.911.908-2.911,1.589,0,.826.358,1.067,3.876,1.532,3.485.463,5.139,1.115,5.139,3.564,0,2.469-2.06,3.885-5.652,3.885m13.808-13.873h.38a.33.33,0,0,0,.372-.346c0-.335-.23-.335-.358-.335h-.392Zm-.463-1.073h.843c.289,0,.857,0,.857.647a.563.563,0,0,1-.463.6c.338.023.36.244.406.556a2.391,2.391,0,0,0,.128.647h-.519c-.014-.113-.094-.738-.094-.772-.034-.139-.082-.207-.255-.207h-.428v.982h-.474Zm-1.013,1.22a1.832,1.832,0,1,0,1.825-1.827,1.834,1.834,0,0,0-1.825,1.827m4.018.009a2.185,2.185,0,1,1-2.185-2.185,2.191,2.191,0,0,1,2.185,2.185" transform="translate(-150.297 -131.187)" fill="#689f63"/>
            <path id="Path_243" data-name="Path 243" d="M26.939,25.695a1.451,1.451,0,0,0-.726-1.261L14.194,17.518a1.4,1.4,0,0,0-.661-.19h-.124a1.428,1.428,0,0,0-.664.19L.727,24.433A1.463,1.463,0,0,0,0,25.7L.026,44.322a.715.715,0,0,0,.36.627.687.687,0,0,0,.721,0l7.145-4.092a1.465,1.465,0,0,0,.726-1.26V30.9A1.447,1.447,0,0,1,9.7,29.639l3.042-1.752a1.443,1.443,0,0,1,.726-.2,1.418,1.418,0,0,1,.722.195l3.04,1.751a1.448,1.448,0,0,1,.726,1.257v8.7a1.47,1.47,0,0,0,.728,1.26l7.141,4.089a.709.709,0,0,0,.726,0,.729.729,0,0,0,.36-.627Zm56.715,9.7a.361.361,0,0,1-.182.314l-4.128,2.38a.364.364,0,0,1-.362,0l-4.129-2.38a.36.36,0,0,1-.182-.314V30.626a.365.365,0,0,1,.179-.315l4.126-2.384a.367.367,0,0,1,.366,0l4.129,2.384a.362.362,0,0,1,.182.315ZM84.769.092a.726.726,0,0,0-1.08.635V19.171a.508.508,0,0,1-.762.44l-3.011-1.734a1.449,1.449,0,0,0-1.451,0L66.443,24.816a1.449,1.449,0,0,0-.726,1.254V39.952a1.453,1.453,0,0,0,.726,1.257l12.023,6.944a1.458,1.458,0,0,0,1.452,0l12.023-6.946a1.455,1.455,0,0,0,.726-1.257V5.353a1.455,1.455,0,0,0-.746-1.268ZM124.806,30.5a1.452,1.452,0,0,0,.722-1.255V25.882a1.452,1.452,0,0,0-.723-1.256l-11.946-6.935a1.451,1.451,0,0,0-1.456,0l-12.02,6.938a1.449,1.449,0,0,0-.726,1.257V39.762a1.457,1.457,0,0,0,.732,1.263l11.943,6.807a1.448,1.448,0,0,0,1.424.009l7.225-4.015a.725.725,0,0,0,.006-1.263l-12.094-6.941a.72.72,0,0,1-.366-.627V30.642a.72.72,0,0,1,.363-.629l3.763-2.171a.717.717,0,0,1,.724,0l3.766,2.171a.723.723,0,0,1,.363.627v3.422a.724.724,0,0,0,1.09.627Zm0,0" transform="translate(0 0)" fill-rule="evenodd"/>
            <path id="Path_244" data-name="Path 244" d="M388.36,105.1a.275.275,0,0,1,.278,0l2.307,1.331a.279.279,0,0,1,.139.241v2.665a.279.279,0,0,1-.139.241l-2.307,1.331a.275.275,0,0,1-.278,0l-2.306-1.331a.278.278,0,0,1-.142-.241v-2.665a.275.275,0,0,1,.139-.241Zm0,0" transform="translate(-276.406 -75.253)" fill="#689f63" fill-rule="evenodd"/>
            <g id="Group_11" data-name="Group 11" transform="translate(33.687 17.57)" clip-path="url(#clip-path-3)">
              <path id="Path_249" data-name="Path 249" d="M197.02,225.934v30.484h26.016V225.934Zm0,0" transform="translate(-197.02 -225.934)" fill="url(#linear-gradient-3)"/>
            </g>
          </g>
        </g>
      </g>
    </g>
  </g>
</svg>
