<svg xmlns="http://www.w3.org/2000/svg" width="79.609" height="59.702" viewBox="0 0 79.609 59.702">
  <path id="Sass_Logo_Color" d="M68.523,34.294a16.482,16.482,0,0,0-7.212,1.672A15.2,15.2,0,0,1,59.7,32.229a10.035,10.035,0,0,1-.145-3.141A27.9,27.9,0,0,1,60.5,25.7c-.015-.145-.174-.829-1.774-.843s-2.981.305-3.141.727a17.546,17.546,0,0,0-.669,2.37c-.276,1.454-3.2,6.645-4.871,9.364a10.1,10.1,0,0,1-1.105-2.734,10.035,10.035,0,0,1-.145-3.141,27.9,27.9,0,0,1,.945-3.388c-.015-.145-.174-.829-1.774-.843s-2.981.305-3.141.727-.334,1.41-.669,2.37-4.217,9.626-5.235,11.865c-.523,1.149-.974,2.065-1.294,2.69h0a.663.663,0,0,1-.058.116c-.276.538-.436.829-.436.829v.015c-.218.393-.451.756-.567.756a4.865,4.865,0,0,1,.029-2.472c.582-3.01,1.963-7.692,1.948-7.852,0-.087.262-.9-.9-1.323A1.444,1.444,0,0,0,36,35.21c-.1,0-.174.247-.174.247s1.265-5.264-2.414-5.264c-2.3,0-5.467,2.516-7.038,4.784-.989.538-3.1,1.687-5.351,2.923-.858.48-1.745.96-2.574,1.41-.058-.058-.116-.131-.174-.189-4.45-4.755-12.68-8.114-12.331-14.5.131-2.327.931-8.434,15.806-15.85C33.989,2.74,43.731,4.412,45.418,8.12c2.414,5.293-5.22,15.123-17.871,16.548-4.828.538-7.358-1.323-8-2.021-.669-.727-.771-.771-1.018-.625-.407.218-.145.872,0,1.251A7.467,7.467,0,0,0,23.1,26.864c2.327.756,7.983,1.178,14.832-1.469,7.663-2.966,13.654-11.211,11.894-18.118C48.064.268,36.432-2.044,25.424,1.868,18.881,4.194,11.785,7.859,6.681,12.628.617,18.3-.342,23.228.05,25.293c1.41,7.329,11.516,12.1,15.559,15.631-.2.116-.393.218-.553.305-2.021,1-9.728,5.031-11.647,9.292-2.181,4.828.349,8.288,2.021,8.754,5.191,1.44,10.528-1.149,13.392-5.424s2.516-9.83,1.192-12.374a.3.3,0,0,0-.058-.087c.523-.305,1.061-.625,1.585-.931,1.032-.611,2.05-1.178,2.923-1.643a19.165,19.165,0,0,0-1.032,5.293c-.218,2.734.9,6.282,2.37,7.678a2.619,2.619,0,0,0,1.919.625c1.716,0,2.486-1.425,3.344-3.112,1.047-2.065,1.992-4.464,1.992-4.464s-1.178,6.485,2.021,6.485c1.163,0,2.341-1.512,2.865-2.283v.015s.029-.044.087-.145c.116-.189.189-.305.189-.305v-.029c.465-.814,1.512-2.661,3.068-5.729,2.007-3.955,3.941-8.9,3.941-8.9A25.271,25.271,0,0,0,46,37.158a30.26,30.26,0,0,0,1.658,3.722c-.465.654-.756,1.018-.756,1.018l.015.015c-.378.494-.785,1.032-1.236,1.556a46.349,46.349,0,0,0-3.737,4.682,1.271,1.271,0,0,0,.349,1.716,3.173,3.173,0,0,0,1.948.32,8.948,8.948,0,0,0,2.923-.669,9.809,9.809,0,0,0,2.516-1.323,5.629,5.629,0,0,0,2.414-4.958,10.011,10.011,0,0,0-.916-3.5c.145-.2.276-.407.422-.611a66.609,66.609,0,0,0,4.362-7.532,25.272,25.272,0,0,0,.771,3.214,21.524,21.524,0,0,0,1.41,3.2A13.821,13.821,0,0,0,53.9,43.484c-.916,2.646-.2,3.839,1.149,4.115a4.053,4.053,0,0,0,2.123-.436,9.67,9.67,0,0,0,2.69-1.381c1.556-1.149,3.054-2.748,2.966-4.915a9.291,9.291,0,0,0-.669-2.908,15.229,15.229,0,0,1,7.721-.887c6.921.814,8.288,5.133,8.027,6.951a4.6,4.6,0,0,1-2.2,3.112c-.48.305-.64.407-.6.625.058.32.291.305.7.247a5.406,5.406,0,0,0,3.766-4.813C79.792,38.918,75.721,34.25,68.523,34.294Zm-53.394,18c-2.3,2.5-5.5,3.446-6.878,2.646-1.483-.858-.9-4.551,1.919-7.2a36.632,36.632,0,0,1,5.395-4.028c.334-.2.829-.494,1.425-.858.1-.058.16-.087.16-.087h0l.349-.218A9.932,9.932,0,0,1,15.129,52.3ZM31.851,40.925c-.8,1.948-2.472,6.936-3.49,6.66-.872-.233-1.41-4.013-.174-7.75a17.607,17.607,0,0,1,2.719-4.988c1.251-1.4,2.632-1.861,2.966-1.294C34.294,34.294,32.346,39.7,31.851,40.925Zm13.8,6.6c-.334.174-.654.291-.8.2-.1-.058.145-.291.145-.291s1.73-1.861,2.414-2.7c.393-.494.858-1.076,1.352-1.73v.189C48.762,45.418,46.61,46.915,45.65,47.526ZM56.294,45.1c-.247-.174-.2-.756.625-2.574a9.688,9.688,0,0,1,2.37-3.054,4.116,4.116,0,0,1,.233,1.338A4.4,4.4,0,0,1,56.294,45.1Z" transform="translate(0.026 0.026)" fill="#cd6799"/>
</svg>
