<?xml version="1.0" encoding="utf-8"?>
<!-- Generator: Adobe Illustrator 23.0.1, SVG Export Plug-In . SVG Version: 6.00 Build 0)  -->
<svg version="1.1" id="Layer_1" xmlns="http://www.w3.org/2000/svg" xmlns:xlink="http://www.w3.org/1999/xlink" x="0px" y="0px"
	 viewBox="0 0 785 98.3" style="enable-background:new 0 0 785 98.3;" xml:space="preserve">
<style type="text/css">
	.st0{fill-rule:evenodd;clip-rule:evenodd;fill:#1D91B4;}
	.st1{fill-rule:evenodd;clip-rule:evenodd;fill:#22A0C8;}
	.st2{fill-rule:evenodd;clip-rule:evenodd;fill:#37B1D9;}
	.st3{fill-rule:evenodd;clip-rule:evenodd;fill:#1B81A5;}
	.st4{fill-rule:evenodd;clip-rule:evenodd;fill:#23A3C2;}
	.st5{fill-rule:evenodd;clip-rule:evenodd;fill:#34BBDE;}
	.st6{fill-rule:evenodd;clip-rule:evenodd;fill:#D3ECEC;}
	.st7{fill-rule:evenodd;clip-rule:evenodd;fill:#364548;}
	.st8{fill-rule:evenodd;clip-rule:evenodd;fill:#BDD9D7;}
	.st9{clip-path:url(#SVGID_2_);}
	.st10{fill:url(#Path_245_1_);}
	.st11{clip-path:url(#SVGID_4_);}
	.st12{fill:url(#Path_247_1_);}
	.st13{fill:#689F63;}
	.st14{fill-rule:evenodd;clip-rule:evenodd;}
	.st15{fill-rule:evenodd;clip-rule:evenodd;fill:#689F63;}
	.st16{clip-path:url(#SVGID_6_);}
	.st17{fill:url(#Path_249_1_);}
	.st18{fill:#FFFFFF;}
	.st19{fill:#D3D3D3;}
	.st20{font-family:'HelveticaNeue-Thin';}
	.st21{font-size:35px;}
	.st22{fill-rule:evenodd;clip-rule:evenodd;fill:#464342;}
	.st23{fill:#61DAFB;}
</style>
<g id="Group_7" transform="translate(1125 578.76)">
	<path id="Path_213" class="st0" d="M-603.6-510.6v-5.4c0-0.7,0.4-1.2,1.1-1.3c0,0,0.1,0,0.1,0h0.2c0.7,0,1.2,0.5,1.2,1.2
		c0,0,0,0.1,0,0.1v11.4c0,2.7-1.5,5.1-3.8,6.4c-1.1,0.6-2.4,1-3.7,1h-0.5c-2.7,0-5.2-1.4-6.5-3.8c-0.7-1.1-1-2.3-1-3.6v-0.5
		c0-2.7,1.5-5.1,3.8-6.4c1.1-0.6,2.4-1,3.7-1h0.5C-606.7-512.5-605-511.8-603.6-510.6L-603.6-510.6z M-614-504.9
		c0,1.9,1.1,3.7,2.8,4.5c0.7,0.4,1.5,0.6,2.3,0.6c1.9,0,3.6-1,4.5-2.6c0.5-0.8,0.7-1.6,0.7-2.5c0-1.7-0.9-3.2-2.3-4.1
		c-0.8-0.6-1.9-0.9-2.9-0.9c-2-0.1-3.9,1.1-4.7,3C-613.8-506.3-614-505.6-614-504.9z M-591.9-512.5h0.4c2.8-0.1,5.5,1.5,6.8,4
		c0.6,1,0.9,2.2,0.9,3.3v0.5c0,2.7-1.5,5.1-3.8,6.4c-1.1,0.6-2.4,1-3.7,1h-0.5c-2.7,0-5.2-1.4-6.5-3.8c-0.7-1.1-1-2.3-1-3.6v-0.5
		c0-2.7,1.5-5.1,3.8-6.4C-594.5-512.2-593.2-512.5-591.9-512.5L-591.9-512.5z M-596.9-504.9c0,1.8,1,3.5,2.7,4.4
		c0.8,0.5,1.7,0.7,2.6,0.7c1.8,0,3.5-1,4.4-2.6c0.5-0.8,0.7-1.6,0.7-2.5c0-1.7-0.9-3.3-2.4-4.2c-2.4-1.5-5.6-0.9-7.1,1.5
		c-0.1,0.2-0.3,0.4-0.4,0.6C-596.7-506.3-596.9-505.6-596.9-504.9L-596.9-504.9z M-573-509.8c-0.5-0.2-1-0.3-1.6-0.3
		c-2-0.1-3.9,1.1-4.7,3c-0.3,0.6-0.5,1.3-0.5,2.1c0,2.1,1.2,3.9,3.2,4.7c0.8,0.3,1.6,0.4,2.5,0.4c0.8-0.1,1.6-0.3,2.3-0.7l0.1-0.1
		h0.5l0.1,0c0.6,0.1,1,0.5,1,1.1v0.3c0,1.6-2.9,1.9-4,2c-3.6,0.4-7-1.9-8-5.5c-0.2-0.6-0.3-1.3-0.3-1.9v-0.5c0-2.7,1.5-5.1,3.8-6.4
		c1.1-0.7,2.4-1,3.7-1h0.5c1.4,0,2.7,0.4,3.8,1.2l0.1,0.1l0.1,0.1c0.1,0.2,0.2,0.4,0.2,0.7v0.3c0,0.7-0.5,1-1.1,1.1l0,0h-0.2
		C-572-509.3-572.5-509.5-573-509.8L-573-509.8z M-564.6-508c1-1,2-2,3.1-3c0.3-0.3,1.4-1.4,1.8-1.4h0.5l0.1,0c0.6,0,1,0.5,1,1.1
		v0.3c0,0.4-0.5,0.9-0.8,1.2c-0.6,0.6-1.2,1.2-1.8,1.8l-3.2,3.1c1.4,1.3,2.7,2.7,4.1,4c0.4,0.4,0.7,0.7,1.1,1.1
		c0.2,0.1,0.3,0.3,0.4,0.5c0.1,0.2,0.2,0.4,0.2,0.6v0.3l0,0.1c-0.1,0.6-0.6,1-1.2,1.1h-0.2c-0.4,0-0.9-0.5-1.2-0.8
		c-0.6-0.6-1.2-1.2-1.8-1.7l-2-1.9v3.1c0,0.7-0.4,1.2-1.1,1.3c0,0-0.1,0-0.1,0h-0.2c-0.7,0-1.2-0.5-1.2-1.2c0,0,0-0.1,0-0.1V-516
		c0-0.7,0.4-1.2,1.1-1.3c0,0,0.1,0,0.1,0h0.2c0.7,0,1.2,0.5,1.2,1.2c0,0,0,0.1,0,0.1L-564.6-508z M-532-512.4h0.3
		c0.7,0,1.3,0.5,1.3,1.1c0,0,0,0.1,0,0.1c0,1.1-1,1.3-1.9,1.3c-1.2,0.1-2.3,0.6-3.1,1.5c-1,0.9-1.5,2.2-1.4,3.6v6.2
		c0,0.7-0.4,1.2-1.1,1.3c0,0-0.1,0-0.1,0h-0.2c-0.7,0-1.2-0.5-1.2-1.2c0,0,0-0.1,0-0.1v-6.5c0-2.4,1.3-4.7,3.3-6
		C-535-512-533.5-512.4-532-512.4L-532-512.4z M-550.6-500.2c1,0.3,2,0.3,3,0.1c0.7-0.4,1.5-0.6,2.2-0.7l0.1,0l0.1,0
		c0.3,0.1,0.5,0.3,0.7,0.6c0.4,0.6,0.2,1.3-0.4,1.7c0,0-0.1,0-0.1,0.1l-0.2,0.1c-2.4,1.3-5.3,1.3-7.6-0.1c-1.1-0.6-2.1-1.5-2.7-2.7
		l-0.2-0.3c-2.1-3.5-0.9-8.1,2.7-10.1c0,0,0.1,0,0.1-0.1l0.4-0.2c2.2-1.3,5-1.3,7.2-0.1c1.3,0.6,2.3,1.6,3.1,2.8l0.1,0.2
		c0.5,0.9-0.2,1.7-0.9,2.2c-0.8,0.6-1.6,1.3-2.4,2C-547.1-503.1-548.8-501.6-550.6-500.2L-550.6-500.2z M-552.8-501.7
		c1.9-1.6,3.9-3.3,5.8-4.9c0.7-0.6,1.4-1.1,2-1.7c-0.6-0.6-1.3-1.1-2.2-1.4c-1.4-0.5-3.1-0.4-4.4,0.4c-1.7,0.9-2.7,2.8-2.5,4.7
		c0,0.8,0.3,1.6,0.7,2.2C-553.2-502.1-553-501.9-552.8-501.7L-552.8-501.7z M-566.9-552.9h7.7v7.7h3.9c1.8,0,3.6-0.3,5.4-0.9
		c0.9-0.3,1.8-0.7,2.6-1.2c-1.1-1.4-1.7-3.1-1.8-4.9c-0.2-2.4,0.3-5.4,1.9-7.3l0.8-0.9l1,0.8c2.4,1.9,4.5,4.6,4.8,7.6
		c3-0.9,6.2-0.6,8.9,0.8l1.1,0.6l-0.6,1.1c-2.2,4.2-6.7,5.5-11.2,5.2c-6.7,16.3-21.2,24-38.8,24c-9.1,0-17.4-3.3-22.2-11.2l-0.1-0.1
		l-0.7-1.4c-1.6-3.5-2.2-7.3-1.8-11.1l0.1-1.1h6.6v-7.7h7.7v-7.5h15.4v-7.5h9.2L-566.9-552.9z"/>
	<path id="Path_214" class="st1" d="M-542-549.3c0.5-4.1-2.5-7.3-4.3-8.9c-2.1,2.5-2.5,9.2,0.9,12c-1.9,1.7-5.8,3.3-9.9,3.3h-49.2
		c-0.4,4,0.3,8.1,2,11.7l0.6,1.1c0.4,0.6,0.7,1.2,1.2,1.8c2,0.1,3.9,0.2,5.6,0.1l0,0c2.8,0,5.5-0.4,8.2-1.2c0.3-0.1,0.6,0.1,0.7,0.4
		c0.1,0.3,0,0.6-0.3,0.8c-0.3,0.1-0.6,0.2-0.9,0.3l0,0c-1.8,0.5-3.7,0.8-5.6,0.9c0.1,0-0.1,0-0.1,0c-0.1,0-0.2,0-0.3,0
		c-0.9,0.1-1.8,0.1-2.8,0.1c-1.1,0-2.1,0-3.3-0.1l0,0c4.1,4.7,10.5,7.6,18.5,7.6c17,0,31.4-7.7,37.8-25.1c4.5,0.5,8.9-0.7,10.9-4.7
		C-535.4-550.8-538.9-550.8-542-549.3"/>
	<path id="Path_215" class="st2" d="M-542.2-549.3c0.5-4.1-2.5-7.3-4.4-8.9c-2.2,2.5-2.5,9.2,0.9,12c-1.9,1.7-6,3.3-10.1,3.3h-47.5
		c-0.2,6.6,2.3,11.7,6.6,14.7l0,0c2.8,0,5.7-0.4,8.4-1.2c0.3-0.1,0.7,0.1,0.8,0.4c0.1,0.3-0.1,0.6-0.4,0.8c-0.3,0.1-0.6,0.2-0.9,0.3
		l0,0c-1.9,0.5-3.9,0.9-5.9,1l-0.1-0.1c5.9,3,14.5,3,24.4-0.8c11.3-4.6,21.1-12,28.5-21.6C-542-549.4-542.1-549.3-542.2-549.3"/>
	<path id="Path_216" class="st3" d="M-604.4-539.3c0.3,2.3,1,4.4,2,6.5l0.6,1.1c0.4,0.6,0.8,1.2,1.2,1.8c2.1,0.1,4,0.2,5.7,0.1
		c2.8,0,5.7-0.4,8.4-1.2c0.3-0.1,0.7,0.1,0.8,0.4c0.1,0.3-0.1,0.6-0.4,0.8c-0.3,0.1-0.6,0.2-0.9,0.3l0,0c-1.9,0.5-3.9,0.9-5.9,1
		c-0.1,0-0.2,0-0.3,0c-0.9,0.1-1.9,0.1-2.9,0.1c-1.1,0-2.2,0-3.4-0.1c4.2,4.7,10.8,7.6,19.1,7.6c14.9,0,27.9-5.7,35.5-18.2
		L-604.4-539.3z"/>
	<path id="Path_217" class="st0" d="M-601.8-539.2c0.8,3.8,3,7.2,6.2,9.4c2.8,0,5.7-0.4,8.4-1.2c0.3-0.1,0.7,0.1,0.8,0.4
		c0.1,0.3-0.1,0.6-0.4,0.8c-0.3,0.1-0.6,0.2-0.9,0.3l0,0c-2,0.5-4,0.9-6,1c5.9,3,14.5,3,24.4-0.8c6.1-2.4,11.8-5.7,16.9-9.8H-601.8z
		"/>
	<path id="Path_218" class="st4" d="M-598.1-550.9h6.8v6.8h-6.8V-550.9z M-597.5-550.4h0.5v5.7h-0.5V-550.4z M-596.5-550.4h0.6v5.7
		h-0.6V-550.4z M-595.5-550.4h0.6v5.7h-0.6V-550.4z M-594.4-550.4h0.6v5.7h-0.6V-550.4z M-593.4-550.4h0.6v5.7h-0.6V-550.4z
		 M-592.4-550.4h0.5v5.7h-0.5V-550.4z M-590.2-558.8h6.8v6.8h-6.8L-590.2-558.8L-590.2-558.8z M-589.6-558.2h0.5v5.7h-0.5V-558.2z
		 M-588.6-558.2h0.6v5.7h-0.6C-588.6-552.6-588.6-558.2-588.6-558.2z M-587.6-558.2h0.6v5.7h-0.6V-558.2z M-586.6-558.2h0.6v5.7
		h-0.6V-558.2z M-585.5-558.2h0.6v5.7h-0.6V-558.2z M-584.5-558.2h0.5v5.7h-0.5V-558.2z"/>
	<path id="Path_219" class="st5" d="M-590.4-551.7h6.8v6.8h-6.8V-551.7z M-589.8-551.2h0.5v5.7h-0.5V-551.2z M-588.8-551.2h0.6v5.7
		h-0.6V-551.2z M-587.7-551.2h0.6v5.7h-0.6V-551.2z M-586.7-551.2h0.6v5.7h-0.6V-551.2z M-585.7-551.2h0.6v5.7h-0.6V-551.2z
		 M-584.6-551.2h0.5v5.7h-0.5V-551.2z"/>
	<path id="Path_220" class="st4" d="M-582.7-551.7h6.8v6.8h-6.8V-551.7z M-582.1-551.2h0.5v5.7h-0.5V-551.2z M-581.1-551.2h0.6v5.7
		h-0.6V-551.2z M-580-551.2h0.6v5.7h-0.6V-551.2z M-579-551.2h0.6v5.7h-0.6V-551.2z M-578-551.2h0.6v5.7h-0.6V-551.2z M-576.9-551.2
		h0.5v5.7h-0.5V-551.2z"/>
	<path id="Path_221" class="st5" d="M-582.7-558.8h6.8v6.8h-6.8V-558.8z M-582.2-558.2h0.5v5.7h-0.5V-558.2z M-581.2-558.2h0.6v5.7
		h-0.6V-558.2z M-580.1-558.2h0.6v5.7h-0.6V-558.2z M-579.1-558.2h0.6v5.7h-0.6V-558.2z M-578.1-558.2h0.6v5.7h-0.6V-558.2z
		 M-577-558.2h0.5v5.7h-0.5V-558.2z M-574.9-550.9h6.8v6.8h-6.8L-574.9-550.9z M-574.3-550.4h0.5v5.7h-0.5V-550.4z M-573.3-550.4
		h0.6v5.7h-0.6V-550.4z M-572.3-550.4h0.6v5.7h-0.6V-550.4z M-571.2-550.4h0.6v5.7h-0.6V-550.4z M-570.2-550.4h0.6v5.7h-0.6V-550.4z
		 M-569.1-550.4h0.5v5.7h-0.5V-550.4z"/>
	<path id="Path_222" class="st4" d="M-575-558.8h6.8v6.8h-6.8V-558.8z M-574.4-558.2h0.5v5.7h-0.5V-558.2z M-573.4-558.2h0.6v5.7
		h-0.6L-573.4-558.2z M-572.3-558.2h0.6v5.7h-0.6V-558.2z M-571.3-558.2h0.6v5.7h-0.6V-558.2z M-570.3-558.2h0.6v5.7h-0.6V-558.2z
		 M-569.2-558.2h0.5v5.7h-0.5V-558.2z"/>
	<path id="Path_223" class="st5" d="M-575-566.7h6.8v6.8h-6.8V-566.7z M-574.4-566.1h0.5v5.7h-0.5V-566.1L-574.4-566.1z
		 M-573.4-566.1h0.6v5.7h-0.6L-573.4-566.1L-573.4-566.1z M-572.3-566.1h0.6v5.7h-0.6V-566.1L-572.3-566.1z M-571.3-566.1h0.6v5.7
		h-0.6V-566.1L-571.3-566.1z M-570.3-566.1h0.6v5.7h-0.6V-566.1L-570.3-566.1z M-569.2-566.1h0.5v5.7h-0.5V-566.1L-569.2-566.1z"/>
	<path id="Path_224" class="st4" d="M-567.3-551.7h6.8v6.8h-6.8V-551.7z M-566.7-551.2h0.5v5.7h-0.5V-551.2z M-565.7-551.2h0.6v5.7
		h-0.6V-551.2z M-564.7-551.2h0.6v5.7h-0.6V-551.2z M-563.6-551.2h0.6v5.7h-0.6V-551.2z M-562.6-551.2h0.6v5.7h-0.6V-551.2z
		 M-561.6-551.2h0.5v5.7h-0.5V-551.2z"/>
	<path id="Path_225" class="st6" d="M-584-534.6c1,0,1.9,0.8,1.9,1.9c0,1-0.8,1.9-1.9,1.9c-1,0-1.9-0.8-1.9-1.9
		C-585.9-533.8-585.1-534.6-584-534.6C-584-534.6-584-534.6-584-534.6"/>
	<path id="Path_226" class="st7" d="M-584-533.9c0.2,0,0.3,0,0.5,0.1c-0.2,0.1-0.3,0.4-0.2,0.6c0.1,0.3,0.4,0.5,0.6,0.4
		c0.1,0,0.3-0.1,0.3-0.3c0.2,0.5,0.1,1.2-0.4,1.6c-0.4,0.4-1.1,0.4-1.6,0.1c-0.5-0.3-0.7-0.9-0.5-1.5
		C-585.1-533.5-584.6-533.9-584-533.9 M-616.6-538.3h85.7c-1.9-0.5-5.9-1.1-5.2-3.6c-3.4,4-11.6,2.8-13.6,0.8
		c-2.3,3.4-15.7,2.1-16.6-0.5c-2.9,3.5-11.8,3.5-14.7,0c-0.9,2.7-14.3,4-16.6,0.5c-2.1,2-10.3,3.2-13.6-0.8
		C-610.7-539.5-614.8-538.8-616.6-538.3"/>
	<path id="Path_227" class="st8" d="M-578.8-521.4c-3.9-1.6-6.9-4.7-8.6-8.5c-2,0.5-4.1,0.9-6.2,0.9c-0.9,0.1-1.9,0.1-2.9,0.1
		c-1.2,0-2.4,0-3.7-0.1c4.3,4.3,9.5,7.6,19.3,7.6C-580.2-521.4-579.5-521.4-578.8-521.4"/>
	<path id="Path_228" class="st6" d="M-585.8-526.7c-0.7-0.9-1.3-2-1.7-3c-2,0.5-4.1,0.9-6.2,0.9
		C-591.3-527.6-588.6-526.9-585.8-526.7"/>
</g>
<g id="Group_17" transform="translate(763 576.834)">
	<g id="Group_16" transform="translate(0)">
		<g id="Group_13" transform="translate(32.93 17.567)">
			<g>
				<defs>
					<path id="SVGID_1_" d="M-580-565.8l-12,6.9c-0.4,0.3-0.7,0.7-0.7,1.2v13.8c0,0.5,0.3,1,0.7,1.2l12,6.9c0.4,0.3,1,0.3,1.4,0
						l12-6.9c0.4-0.3,0.7-0.7,0.7-1.2v-13.8c0-0.5-0.3-1-0.7-1.2l-12-6.9C-579-566.1-579.5-566.1-580-565.8"/>
				</defs>
				<clipPath id="SVGID_2_">
					<use xlink:href="#SVGID_1_"  style="overflow:visible;"/>
				</clipPath>
				<g id="Group_9" class="st9">
					
						<linearGradient id="Path_245_1_" gradientUnits="userSpaceOnUse" x1="-1039.0798" y1="-230.1201" x2="-1039.0708" y2="-230.1201" gradientTransform="matrix(50.959 0 0 -51.749 52302.5898 -12459.208)">
						<stop  offset="0.3" style="stop-color:#3E863D"/>
						<stop  offset="0.5" style="stop-color:#55934F"/>
						<stop  offset="0.8" style="stop-color:#5AAD45"/>
					</linearGradient>
					<path id="Path_245" class="st10" d="M-553.8-560.1l-33.7-16.5l-17.3,35.2l33.7,16.5L-553.8-560.1z"/>
				</g>
			</g>
		</g>
		<g id="Group_15">
			<g id="Group_14">
				<g>
					<defs>
						<path id="SVGID_3_" d="M-559.4-525.4c0.1,0.2,0.3,0.3,0.4,0.4l10.3,5.9l1.7,1c0.3,0.1,0.5,0.2,0.8,0.2c0.1,0,0.2,0,0.3-0.1
							l12.6-23.1c-0.1-0.1-0.2-0.2-0.3-0.3l-7.8-4.5l-4.1-2.4c-0.1-0.1-0.2-0.1-0.4-0.2L-559.4-525.4z"/>
					</defs>
					<clipPath id="SVGID_4_">
						<use xlink:href="#SVGID_3_"  style="overflow:visible;"/>
					</clipPath>
					<g id="Group_10" transform="translate(33.226 17.608)" class="st11">
						
							<linearGradient id="Path_247_1_" gradientUnits="userSpaceOnUse" x1="-1039.6351" y1="-229.814" x2="-1039.6301" y2="-229.814" gradientTransform="matrix(55.244 0 0 -55.436 56785.3984 -13290.7295)">
							<stop  offset="0.57" style="stop-color:#3E863D"/>
							<stop  offset="0.72" style="stop-color:#619857"/>
							<stop  offset="1" style="stop-color:#76AC64"/>
						</linearGradient>
						<path id="Path_247" class="st12" d="M-607.2-555.2l23.8,32.2l31.5-23.2l-23.8-32.2L-607.2-555.2z"/>
					</g>
				</g>
				<g id="Group_12">
					<path id="Path_241" class="st13" d="M-530.6-489.1c-0.4,0-0.8-0.1-1.2-0.3l-3.8-2.2c-0.6-0.3-0.3-0.4-0.1-0.5
						c0.6-0.2,1.2-0.5,1.7-0.8c0.1,0,0.2,0,0.3,0l2.9,1.7c0.1,0.1,0.2,0.1,0.4,0l11.3-6.5c0.1-0.1,0.2-0.2,0.2-0.3v-13.1
						c0-0.1-0.1-0.2-0.2-0.3l-11.3-6.5c-0.1-0.1-0.2-0.1-0.3,0l-11.3,6.5c-0.1,0.1-0.2,0.2-0.2,0.3v13.1c0,0.1,0.1,0.2,0.2,0.3
						l3.1,1.8c1.7,0.8,2.7-0.1,2.7-1.1V-510c0-0.2,0.1-0.3,0.3-0.3c0,0,0,0,0,0h1.4c0.2,0,0.3,0.1,0.3,0.3c0,0,0,0,0,0v12.9
						c0,2.2-1.2,3.5-3.4,3.5c-0.9,0-1.8-0.2-2.6-0.7l-3-1.7c-0.7-0.4-1.2-1.2-1.2-2.1v-13.1c0-0.9,0.5-1.6,1.2-2.1l11.3-6.5
						c0.7-0.4,1.6-0.4,2.4,0l11.3,6.5c0.7,0.4,1.2,1.2,1.2,2.1v13.1c0,0.9-0.5,1.6-1.2,2.1l-11.3,6.5
						C-529.8-489.2-530.2-489.1-530.6-489.1"/>
					<path id="Path_242" class="st13" d="M-527.1-498.1c-5,0-6-2.3-6-4.2c0-0.2,0.1-0.3,0.3-0.3c0,0,0,0,0,0h1.5
						c0.2,0,0.3,0.1,0.3,0.3c0.2,1.5,0.9,2.2,3.9,2.2c2.4,0,3.4-0.5,3.4-1.8c0-0.7-0.3-1.3-4-1.6c-3.1-0.3-5-1-5-3.5
						c0-2.3,1.9-3.6,5.2-3.6c3.6,0,5.4,1.3,5.7,4c0,0.1,0,0.2-0.1,0.3c-0.1,0.1-0.2,0.1-0.2,0.1h-1.5c-0.2,0-0.3-0.1-0.3-0.3
						c-0.4-1.6-1.2-2.1-3.5-2.1c-2.6,0-2.9,0.9-2.9,1.6c0,0.8,0.4,1.1,3.9,1.5c3.5,0.5,5.1,1.1,5.1,3.6
						C-521.5-499.5-523.5-498.1-527.1-498.1 M-513.3-512h0.4c0.2,0,0.3-0.1,0.4-0.3c0,0,0,0,0-0.1c0-0.3-0.2-0.3-0.4-0.3h-0.4
						L-513.3-512z M-513.8-513.1h0.8c0.3,0,0.9,0,0.9,0.6c0,0.3-0.2,0.5-0.5,0.6c0.3,0,0.4,0.2,0.4,0.6c0,0.2,0.1,0.4,0.1,0.6h-0.5
						c0-0.1-0.1-0.7-0.1-0.8c0-0.1-0.1-0.2-0.3-0.2h-0.4v1h-0.5L-513.8-513.1z M-514.8-511.9c0,1,0.8,1.8,1.8,1.8s1.8-0.8,1.8-1.8
						c0-1-0.8-1.8-1.8-1.8c0,0,0,0,0,0C-514-513.7-514.8-512.9-514.8-511.9 M-510.8-511.8c0,1.2-1,2.2-2.2,2.2c-1.2,0-2.2-1-2.2-2.2
						s1-2.2,2.2-2.2l0,0C-511.7-514-510.8-513-510.8-511.8"/>
					<path id="Path_243" class="st14" d="M-565.7-540.3c0-0.5-0.3-1-0.7-1.3l-12-6.9c-0.2-0.1-0.4-0.2-0.7-0.2h-0.1
						c-0.2,0-0.5,0.1-0.7,0.2l-12,6.9c-0.5,0.3-0.7,0.7-0.7,1.3l0,18.6c0,0.3,0.1,0.5,0.4,0.6c0.2,0.1,0.5,0.1,0.7,0l7.1-4.1
						c0.4-0.3,0.7-0.7,0.7-1.3v-8.7c0-0.5,0.3-1,0.7-1.3l3-1.8c0.2-0.1,0.5-0.2,0.7-0.2c0.3,0,0.5,0.1,0.7,0.2l3,1.8
						c0.4,0.3,0.7,0.7,0.7,1.3v8.7c0,0.5,0.3,1,0.7,1.3l7.1,4.1c0.2,0.1,0.5,0.1,0.7,0c0.2-0.1,0.4-0.4,0.4-0.6L-565.7-540.3z
						 M-509-530.6c0,0.1-0.1,0.2-0.2,0.3l-4.1,2.4c-0.1,0.1-0.2,0.1-0.4,0l-4.1-2.4c-0.1-0.1-0.2-0.2-0.2-0.3v-4.8
						c0-0.1,0.1-0.2,0.2-0.3l4.1-2.4c0.1-0.1,0.3-0.1,0.4,0l4.1,2.4c0.1,0.1,0.2,0.2,0.2,0.3L-509-530.6z M-507.9-565.9
						c-0.4-0.2-0.8-0.1-1,0.3c-0.1,0.1-0.1,0.2-0.1,0.4v18.4c0,0.3-0.2,0.5-0.5,0.5c-0.1,0-0.2,0-0.3-0.1l-3-1.7
						c-0.4-0.3-1-0.3-1.5,0l-12,6.9c-0.4,0.3-0.7,0.7-0.7,1.3v13.9c0,0.5,0.3,1,0.7,1.3l12,6.9c0.4,0.3,1,0.3,1.5,0l12-6.9
						c0.4-0.3,0.7-0.7,0.7-1.3v-34.6c0-0.5-0.3-1-0.7-1.3L-507.9-565.9z M-467.8-535.5c0.4-0.3,0.7-0.7,0.7-1.3v-3.4
						c0-0.5-0.3-1-0.7-1.3l-11.9-6.9c-0.5-0.3-1-0.3-1.5,0l-12,6.9c-0.4,0.3-0.7,0.7-0.7,1.3v13.9c0,0.5,0.3,1,0.7,1.3l11.9,6.8
						c0.4,0.3,1,0.3,1.4,0l7.2-4c0.3-0.2,0.5-0.6,0.3-1c-0.1-0.1-0.2-0.2-0.3-0.3l-12.1-6.9c-0.2-0.1-0.4-0.4-0.4-0.6v-4.4
						c0-0.3,0.1-0.5,0.4-0.6l3.8-2.2c0.2-0.1,0.5-0.1,0.7,0l3.8,2.2c0.2,0.1,0.4,0.4,0.4,0.6v3.4c0,0.4,0.3,0.7,0.7,0.7
						c0.1,0,0.3,0,0.4-0.1L-467.8-535.5z"/>
					<path id="Path_244" class="st15" d="M-480.7-536.2c0.1-0.1,0.2-0.1,0.3,0l2.3,1.3c0.1,0,0.1,0.1,0.1,0.2v2.7
						c0,0.1-0.1,0.2-0.1,0.2l-2.3,1.3c-0.1,0.1-0.2,0.1-0.3,0l-2.3-1.3c-0.1,0-0.1-0.1-0.1-0.2v-2.7c0-0.1,0.1-0.2,0.1-0.2
						L-480.7-536.2z"/>
					<g>
						<defs>
							<path id="SVGID_5_" d="M-546.5-548.4c-0.2,0-0.4,0.1-0.6,0.2l-11.9,6.9l12.9,23.4c0.2,0,0.4-0.1,0.5-0.2l12-6.9
								c0.4-0.2,0.6-0.6,0.7-1l-13.1-22.4c-0.1,0-0.2,0-0.3,0C-546.4-548.4-546.4-548.4-546.5-548.4"/>
						</defs>
						<clipPath id="SVGID_6_">
							<use xlink:href="#SVGID_5_"  style="overflow:visible;"/>
						</clipPath>
						<g id="Group_11" transform="translate(33.687 17.57)" class="st16">
							
								<linearGradient id="Path_249_1_" gradientUnits="userSpaceOnUse" x1="-1036.6344" y1="-233.7639" x2="-1036.6244" y2="-233.7639" gradientTransform="matrix(26.016 0 0 -30.484 26320.5684 -7676.8184)">
								<stop  offset="0.16" style="stop-color:#6BBF47"/>
								<stop  offset="0.38" style="stop-color:#79B461"/>
								<stop  offset="0.47" style="stop-color:#75AC64"/>
								<stop  offset="0.7" style="stop-color:#659E5A"/>
								<stop  offset="0.9" style="stop-color:#3E863D"/>
							</linearGradient>
							<path id="Path_249" class="st17" d="M-592.6-566v30.5h26V-566H-592.6z"/>
						</g>
					</g>
				</g>
			</g>
		</g>
	</g>
</g>
<path id="iconfinder_icon-plus-round_211877" class="st18" d="M663,39.8H650V26.7c-0.1-1.8-1.6-3.2-3.4-3.1c-1.7,0.1-3,1.4-3.1,3.1
	v13.1h-13.1c-1.8,0.1-3.2,1.6-3.1,3.4c0.1,1.7,1.4,3,3.1,3.1h13.1v13.1c0.1,1.8,1.6,3.2,3.4,3.1c1.7-0.1,3-1.4,3.1-3.1V46.2H663
	c1.8-0.1,3.2-1.6,3.1-3.4C666.1,41.2,664.7,39.8,663,39.8z"/>
<text transform="matrix(1 0 0 1 686.8307 37.997)" class="st19 st20 st21">many</text>
<text transform="matrix(1 0 0 1 689.2987 72.997)" class="st19 st20 st21">more</text>
<g transform="matrix(1.0755 0 0 1.0755 -3.5103 -1.6684)">
	<path class="st22" d="M376.6,14c8.2,0,15.7,3.1,21.3,8.3c-2.7-0.1-5.5,1.6-5.6,5.3c-0.2,7.6,9,9.2,4,24.4l-4.1,12.6l-11.3-33.2
		c-0.2-0.5,0-0.8,0.7-0.8h3.2c0.2,0,0.3-0.1,0.3-0.3v-1.9c0-0.2-0.1-0.3-0.3-0.3c-6,0.3-12,0.3-18,0c-0.2,0-0.3,0.1-0.3,0.3v1.9
		c0,0.2,0.1,0.3,0.3,0.3h3.2c0.7,0,0.9,0.2,1.1,0.7l4.6,12.7l-7,21l-11.4-33.7c-0.1-0.4,0-0.7,0.4-0.7h3.6c0.2,0,0.3-0.1,0.3-0.3
		v-1.9c0-0.2-0.1-0.3-0.3-0.3c-3.8,0.2-7.7,0.2-11.2,0.3C355.8,19.7,365.5,14,376.6,14L376.6,14L376.6,14z M404.3,30.5
		c2.4,4.5,3.8,9.6,3.8,15c0,11.9-6.6,22.3-16.4,27.6l9.8-27.8C403.1,41,404.5,35.2,404.3,30.5L404.3,30.5L404.3,30.5z M387.1,75.2
		c-3.3,1.2-6.8,1.8-10.5,1.8c-3.2,0-6.3-0.5-9.2-1.4l9.7-27.8L387.1,75.2L387.1,75.2L387.1,75.2z M363.1,74
		c-10.7-5.1-18-15.9-18-28.5c0-4.7,1-9.1,2.8-13.1L363.1,74L363.1,74L363.1,74z M376.6,11c19,0,34.5,15.4,34.5,34.5
		S395.6,80,376.6,80c-19,0-34.5-15.4-34.5-34.5S357.6,11,376.6,11z M376.6,8.9c20.2,0,36.6,16.4,36.6,36.6s-16.4,36.6-36.6,36.6
		s-36.6-16.4-36.6-36.6S356.4,8.9,376.6,8.9L376.6,8.9z"/>
</g>
<g>
	<path class="st23" d="M103.7,47.5c0-5.7-7.2-11.2-18.2-14.5c2.5-11.2,1.4-20.2-3.6-23c-1.1-0.7-2.5-1-4-1v3.9c0.8,0,1.5,0.2,2,0.5
		c2.4,1.4,3.4,6.6,2.6,13.4c-0.2,1.7-0.5,3.4-0.9,5.2c-3.5-0.8-7.2-1.5-11.2-1.9c-2.4-3.3-4.9-6.2-7.3-8.8
		c5.8-5.3,11.2-8.3,14.8-8.3V9l0,0c-4.9,0-11.2,3.5-17.6,9.5C53.9,12.5,47.6,9,42.7,9V13c3.7,0,9.1,2.9,14.8,8.2
		c-2.5,2.6-4.9,5.5-7.3,8.8c-4,0.4-7.8,1.1-11.2,1.9c-0.4-1.8-0.7-3.5-0.9-5.1c-0.8-6.7,0.2-12,2.6-13.4c0.5-0.3,1.2-0.5,2-0.5V9.1
		l0,0c-1.5,0-2.8,0.3-4,1c-5,2.9-6.1,11.8-3.5,23c-11,3.4-18.1,8.8-18.1,14.5c0,5.7,7.2,11.2,18.2,14.5c-2.5,11.2-1.4,20.2,3.6,23
		c1.1,0.7,2.5,1,4,1c4.9,0,11.2-3.5,17.6-9.5c6.4,6,12.8,9.4,17.6,9.4c1.5,0,2.8-0.3,4-1c5-2.9,6.1-11.8,3.5-23
		C96.5,58.7,103.7,53.2,103.7,47.5z M80.7,35.8c-0.7,2.3-1.5,4.6-2.4,7c-0.7-1.4-1.5-2.8-2.3-4.2c-0.8-1.4-1.7-2.8-2.5-4.1
		C76,34.7,78.4,35.2,80.7,35.8z M72.6,54.6c-1.4,2.4-2.8,4.6-4.3,6.7c-2.6,0.2-5.3,0.4-8,0.4c-2.7,0-5.3-0.1-7.9-0.3
		c-1.5-2.1-2.9-4.3-4.3-6.7c-1.3-2.3-2.6-4.7-3.7-7c1.1-2.4,2.3-4.7,3.7-7c1.4-2.4,2.8-4.6,4.3-6.7c2.6-0.2,5.3-0.4,8-0.4
		c2.7,0,5.3,0.1,7.9,0.3c1.5,2.1,2.9,4.3,4.3,6.7c1.3,2.3,2.6,4.7,3.7,7C75.1,49.9,73.9,52.2,72.6,54.6z M78.3,52.3
		c1,2.4,1.8,4.7,2.4,7c-2.3,0.6-4.7,1-7.3,1.4c0.9-1.4,1.7-2.8,2.5-4.2C76.8,55.1,77.6,53.7,78.3,52.3z M60.4,71.1
		c-1.6-1.7-3.3-3.6-4.9-5.6c1.6,0.1,3.2,0.1,4.9,0.1c1.7,0,3.3,0,4.9-0.1C63.7,67.5,62,69.4,60.4,71.1z M47.3,60.7
		c-2.5-0.4-4.9-0.8-7.2-1.4c0.7-2.3,1.5-4.6,2.4-7c0.7,1.4,1.5,2.8,2.3,4.2C45.6,58,46.4,59.4,47.3,60.7z M60.3,24
		c1.6,1.7,3.3,3.6,4.9,5.6c-1.6-0.1-3.2-0.1-4.9-0.1c-1.7,0-3.3,0-4.9,0.1C57.1,27.6,58.7,25.7,60.3,24z M47.3,34.4
		c-0.9,1.4-1.7,2.8-2.5,4.2c-0.8,1.4-1.6,2.8-2.3,4.2c-1-2.4-1.8-4.7-2.4-7C42.3,35.2,44.7,34.7,47.3,34.4z M31.3,56.5
		C25,53.8,21,50.3,21,47.5c0-2.8,4-6.3,10.3-8.9c1.5-0.7,3.2-1.2,4.9-1.8c1,3.5,2.3,7.1,4,10.7c-1.6,3.7-2.9,7.3-3.9,10.7
		C34.5,57.7,32.8,57.1,31.3,56.5z M40.8,81.7c-2.4-1.4-3.4-6.6-2.6-13.4c0.2-1.7,0.5-3.4,0.9-5.2c3.5,0.8,7.2,1.5,11.2,1.9
		c2.4,3.3,4.9,6.2,7.3,8.8c-5.8,5.3-11.2,8.3-14.8,8.3C42,82.1,41.3,82,40.8,81.7z M82.6,68.2c0.8,6.7-0.2,12-2.6,13.4
		c-0.5,0.3-1.2,0.5-2,0.5c-3.7,0-9.1-2.9-14.8-8.2c2.5-2.6,4.9-5.5,7.3-8.8c4-0.4,7.8-1.1,11.2-1.9C82.1,64.9,82.5,66.6,82.6,68.2z
		 M89.4,56.5c-1.5,0.7-3.2,1.2-4.9,1.8c-1-3.5-2.3-7.1-4-10.7c1.6-3.7,2.9-7.3,3.9-10.7c1.7,0.5,3.4,1.1,5,1.8
		c6.2,2.7,10.3,6.2,10.3,8.9C99.7,50.3,95.7,53.8,89.4,56.5z"/>
	<path class="st23" d="M42.7,9L42.7,9L42.7,9z"/>
	<circle class="st23" cx="60.4" cy="47.5" r="8.1"/>
	<path class="st23" d="M77.9,9L77.9,9L77.9,9z"/>
</g>
</svg>
