<svg xmlns="http://www.w3.org/2000/svg" xmlns:xlink="http://www.w3.org/1999/xlink" width="785" height="98.302" viewBox="0 0 785 98.302">
  <defs>
    <clipPath id="clip-path">
      <path id="Path_208" data-name="Path 208" d="M197.2,225.968l-2.684,1.549a.324.324,0,0,0-.162.281v3.1a.324.324,0,0,0,.162.281l2.684,1.551a.325.325,0,0,0,.324,0l2.684-1.551a.325.325,0,0,0,.162-.281v-3.1a.324.324,0,0,0-.162-.281l-2.684-1.549a.326.326,0,0,0-.325,0" transform="translate(-194.354 -225.925)"/>
    </clipPath>
    <linearGradient id="linear-gradient" x1="-0.847" y1="-1.034" x2="-0.838" y2="-1.034" gradientUnits="objectBoundingBox">
      <stop offset="0.3" stop-color="#3e863d"/>
      <stop offset="0.5" stop-color="#55934f"/>
      <stop offset="0.8" stop-color="#5aad45"/>
    </linearGradient>
    <clipPath id="clip-path-2">
      <path id="Path_210" data-name="Path 210" d="M195.4,231.231a.325.325,0,0,0,.1.084l2.3,1.33.384.22a.326.326,0,0,0,.187.042.331.331,0,0,0,.064-.012l2.831-5.184a.321.321,0,0,0-.075-.06l-1.758-1.015-.929-.535a.339.339,0,0,0-.084-.034Zm0,0" transform="translate(-195.398 -226.069)"/>
    </clipPath>
    <linearGradient id="linear-gradient-2" x1="-0.742" y1="-0.932" x2="-0.737" y2="-0.932" gradientUnits="objectBoundingBox">
      <stop offset="0.57" stop-color="#3e863d"/>
      <stop offset="0.72" stop-color="#619857"/>
      <stop offset="1" stop-color="#76ac64"/>
    </linearGradient>
    <clipPath id="clip-path-3">
      <path id="Path_212" data-name="Path 212" d="M199.827,225.935a.327.327,0,0,0-.13.042l-2.677,1.545,2.886,5.257a.322.322,0,0,0,.115-.04l2.684-1.551a.325.325,0,0,0,.157-.221l-2.942-5.026a.337.337,0,0,0-.066-.007h-.027" transform="translate(-197.021 -225.934)"/>
    </clipPath>
    <linearGradient id="linear-gradient-3" x1="-2.148" y1="-2.103" x2="-2.138" y2="-2.103" gradientUnits="objectBoundingBox">
      <stop offset="0.16" stop-color="#6bbf47"/>
      <stop offset="0.38" stop-color="#79b461"/>
      <stop offset="0.47" stop-color="#75ac64"/>
      <stop offset="0.7" stop-color="#659e5a"/>
      <stop offset="0.9" stop-color="#3e863d"/>
    </linearGradient>
    <clipPath id="clip-path-4">
      <path id="Path_246" data-name="Path 246" d="M207.031,226.118l-11.955,6.9a1.443,1.443,0,0,0-.722,1.25v13.81a1.443,1.443,0,0,0,.722,1.25l11.956,6.906a1.447,1.447,0,0,0,1.444,0l11.954-6.906a1.446,1.446,0,0,0,.721-1.25v-13.81a1.443,1.443,0,0,0-.724-1.25l-11.952-6.9a1.453,1.453,0,0,0-1.447,0" transform="translate(-194.354 -225.925)"/>
    </clipPath>
    <clipPath id="clip-path-5">
      <path id="Path_248" data-name="Path 248" d="M195.4,249.058a1.447,1.447,0,0,0,.426.373l10.255,5.924,1.708.982a1.449,1.449,0,0,0,.833.189,1.474,1.474,0,0,0,.284-.052l12.609-23.087a1.429,1.429,0,0,0-.336-.267l-7.828-4.52-4.138-2.381a1.509,1.509,0,0,0-.375-.15Zm0,0" transform="translate(-195.398 -226.069)"/>
    </clipPath>
    <clipPath id="clip-path-6">
      <path id="Path_250" data-name="Path 250" d="M209.519,225.939a1.458,1.458,0,0,0-.577.185L197.021,233l12.854,23.413a1.434,1.434,0,0,0,.514-.177l11.955-6.906a1.449,1.449,0,0,0,.7-.986l-13.1-22.386a1.5,1.5,0,0,0-.292-.029c-.04,0-.079,0-.119.006" transform="translate(-197.021 -225.934)"/>
    </clipPath>
  </defs>
  <g id="Group_22" data-name="Group 22" transform="translate(-585 -566.089)">
    <path id="Sass_Logo_Color" d="M68.523,34.294a16.482,16.482,0,0,0-7.212,1.672A15.2,15.2,0,0,1,59.7,32.229a10.035,10.035,0,0,1-.145-3.141A27.9,27.9,0,0,1,60.5,25.7c-.015-.145-.174-.829-1.774-.843s-2.981.305-3.141.727a17.546,17.546,0,0,0-.669,2.37c-.276,1.454-3.2,6.645-4.871,9.364a10.1,10.1,0,0,1-1.105-2.734,10.035,10.035,0,0,1-.145-3.141,27.9,27.9,0,0,1,.945-3.388c-.015-.145-.174-.829-1.774-.843s-2.981.305-3.141.727-.334,1.41-.669,2.37-4.217,9.626-5.235,11.865c-.523,1.149-.974,2.065-1.294,2.69h0a.663.663,0,0,1-.058.116c-.276.538-.436.829-.436.829v.015c-.218.393-.451.756-.567.756a4.865,4.865,0,0,1,.029-2.472c.582-3.01,1.963-7.692,1.948-7.852,0-.087.262-.9-.9-1.323A1.444,1.444,0,0,0,36,35.21c-.1,0-.174.247-.174.247s1.265-5.264-2.414-5.264c-2.3,0-5.467,2.516-7.038,4.784-.989.538-3.1,1.687-5.351,2.923-.858.48-1.745.96-2.574,1.41-.058-.058-.116-.131-.174-.189-4.45-4.755-12.68-8.114-12.331-14.5.131-2.327.931-8.434,15.806-15.85C33.989,2.74,43.731,4.412,45.418,8.12c2.414,5.293-5.22,15.123-17.871,16.548-4.828.538-7.358-1.323-8-2.021-.669-.727-.771-.771-1.018-.625-.407.218-.145.872,0,1.251A7.467,7.467,0,0,0,23.1,26.864c2.327.756,7.983,1.178,14.832-1.469,7.663-2.966,13.654-11.211,11.894-18.118C48.064.268,36.432-2.044,25.424,1.868,18.881,4.194,11.785,7.859,6.681,12.628.617,18.3-.342,23.228.05,25.293c1.41,7.329,11.516,12.1,15.559,15.631-.2.116-.393.218-.553.305-2.021,1-9.728,5.031-11.647,9.292-2.181,4.828.349,8.288,2.021,8.754,5.191,1.44,10.528-1.149,13.392-5.424s2.516-9.83,1.192-12.374a.3.3,0,0,0-.058-.087c.523-.305,1.061-.625,1.585-.931,1.032-.611,2.05-1.178,2.923-1.643a19.165,19.165,0,0,0-1.032,5.293c-.218,2.734.9,6.282,2.37,7.678a2.619,2.619,0,0,0,1.919.625c1.716,0,2.486-1.425,3.344-3.112,1.047-2.065,1.992-4.464,1.992-4.464s-1.178,6.485,2.021,6.485c1.163,0,2.341-1.512,2.865-2.283v.015s.029-.044.087-.145c.116-.189.189-.305.189-.305v-.029c.465-.814,1.512-2.661,3.068-5.729,2.007-3.955,3.941-8.9,3.941-8.9A25.271,25.271,0,0,0,46,37.158a30.26,30.26,0,0,0,1.658,3.722c-.465.654-.756,1.018-.756,1.018l.015.015c-.378.494-.785,1.032-1.236,1.556a46.349,46.349,0,0,0-3.737,4.682,1.271,1.271,0,0,0,.349,1.716,3.173,3.173,0,0,0,1.948.32,8.948,8.948,0,0,0,2.923-.669,9.809,9.809,0,0,0,2.516-1.323,5.629,5.629,0,0,0,2.414-4.958,10.011,10.011,0,0,0-.916-3.5c.145-.2.276-.407.422-.611a66.609,66.609,0,0,0,4.362-7.532,25.272,25.272,0,0,0,.771,3.214,21.524,21.524,0,0,0,1.41,3.2A13.821,13.821,0,0,0,53.9,43.484c-.916,2.646-.2,3.839,1.149,4.115a4.053,4.053,0,0,0,2.123-.436,9.67,9.67,0,0,0,2.69-1.381c1.556-1.149,3.054-2.748,2.966-4.915a9.291,9.291,0,0,0-.669-2.908,15.229,15.229,0,0,1,7.721-.887c6.921.814,8.288,5.133,8.027,6.951a4.6,4.6,0,0,1-2.2,3.112c-.48.305-.64.407-.6.625.058.32.291.305.7.247a5.406,5.406,0,0,0,3.766-4.813C79.792,38.918,75.721,34.25,68.523,34.294Zm-53.394,18c-2.3,2.5-5.5,3.446-6.878,2.646-1.483-.858-.9-4.551,1.919-7.2a36.632,36.632,0,0,1,5.395-4.028c.334-.2.829-.494,1.425-.858.1-.058.16-.087.16-.087h0l.349-.218A9.932,9.932,0,0,1,15.129,52.3ZM31.851,40.925c-.8,1.948-2.472,6.936-3.49,6.66-.872-.233-1.41-4.013-.174-7.75a17.607,17.607,0,0,1,2.719-4.988c1.251-1.4,2.632-1.861,2.966-1.294C34.294,34.294,32.346,39.7,31.851,40.925Zm13.8,6.6c-.334.174-.654.291-.8.2-.1-.058.145-.291.145-.291s1.73-1.861,2.414-2.7c.393-.494.858-1.076,1.352-1.73v.189C48.762,45.418,46.61,46.915,45.65,47.526ZM56.294,45.1c-.247-.174-.2-.756.625-2.574a9.688,9.688,0,0,1,2.37-3.054,4.116,4.116,0,0,1,.233,1.338A4.4,4.4,0,0,1,56.294,45.1Z" transform="translate(1026.026 585.41)" fill="#cd6799"/>
    <g id="Group_7" data-name="Group 7" transform="translate(1125 578.76)">
      <path id="Path_213" data-name="Path 213" d="M13.133,57.381v-5.4a1.189,1.189,0,0,1,1.2-1.279h.208a1.188,1.188,0,0,1,1.2,1.279V63.345a7.136,7.136,0,0,1-3.837,6.379,7.326,7.326,0,0,1-3.689.984H7.7a7.349,7.349,0,0,1-6.52-3.753,6.914,6.914,0,0,1-1.006-3.61v-.506a7.144,7.144,0,0,1,3.835-6.381,7.3,7.3,0,0,1,3.69-.984H8.22a7.378,7.378,0,0,1,4.914,1.908ZM2.788,63.092a4.843,4.843,0,0,0,2.784,4.466,4.915,4.915,0,0,0,2.338.6,5.052,5.052,0,0,0,4.524-2.591,4.716,4.716,0,0,0,.7-2.522,4.855,4.855,0,0,0-2.268-4.094,4.947,4.947,0,0,0-2.9-.915,4.972,4.972,0,0,0-4.708,3A4.609,4.609,0,0,0,2.788,63.092Zm22.019-7.619h.362a7.428,7.428,0,0,1,6.786,4.021,6.755,6.755,0,0,1,.9,3.345v.506a7.128,7.128,0,0,1-3.838,6.379,7.344,7.344,0,0,1-3.689.984h-.517a7.348,7.348,0,0,1-6.52-3.753,6.915,6.915,0,0,1-1.007-3.61v-.506a7.161,7.161,0,0,1,3.835-6.381,7.267,7.267,0,0,1,3.692-.985Zm-4.915,7.619a4.9,4.9,0,0,0,2.651,4.377,4.922,4.922,0,0,0,2.575.685,5.012,5.012,0,0,0,4.421-2.593,4.674,4.674,0,0,0,.7-2.52,4.844,4.844,0,0,0-2.409-4.186,5.147,5.147,0,0,0-7.471,2.18,4.6,4.6,0,0,0-.465,2.058Zm23.816-4.857a4.987,4.987,0,0,0-1.559-.257,4.87,4.87,0,0,0-4.687,3.006A4.589,4.589,0,0,0,37,63.04,4.93,4.93,0,0,0,40.168,67.7a6.068,6.068,0,0,0,2.468.406,6.574,6.574,0,0,0,2.314-.709l.108-.05h.483l.053.011a1.143,1.143,0,0,1,1.042,1.115v.253c0,1.556-2.906,1.912-4.015,1.988a7.374,7.374,0,0,1-7.956-5.49,6.485,6.485,0,0,1-.281-1.925v-.506a7.157,7.157,0,0,1,3.835-6.378,7.27,7.27,0,0,1,3.691-.986h.518a6.754,6.754,0,0,1,3.824,1.155l.094.064.06.1a1.327,1.327,0,0,1,.231.673v.253c0,.652-.5,1-1.1,1.117l-.05.009h-.154a5.973,5.973,0,0,1-1.624-.555Zm8.472,1.73c1.015-.994,2.033-1.986,3.062-2.964.287-.273,1.373-1.427,1.8-1.427h.468l.053.011A1.142,1.142,0,0,1,58.607,56.7v.253c0,.427-.512.924-.794,1.217-.6.622-1.232,1.224-1.846,1.834l-3.156,3.134q2.038,2,4.064,4.008.561.556,1.113,1.12a2.82,2.82,0,0,1,.43.485,1.031,1.031,0,0,1,.189.578v.264l-.015.061a1.224,1.224,0,0,1-1.185,1.053H57.2c-.432,0-.92-.478-1.216-.752-.61-.563-1.2-1.154-1.8-1.729L52.181,66.3V69.38a1.19,1.19,0,0,1-1.2,1.279h-.206a1.189,1.189,0,0,1-1.2-1.279V52.034a1.187,1.187,0,0,1,1.2-1.276h.206a1.187,1.187,0,0,1,1.2,1.276Zm32.554-4.391h.26A1.224,1.224,0,0,1,86.3,56.853c0,1.058-1.034,1.329-1.928,1.329a4.731,4.731,0,0,0-3.1,1.474,4.81,4.81,0,0,0-1.449,3.588v6.187a1.189,1.189,0,0,1-1.2,1.278h-.206a1.188,1.188,0,0,1-1.2-1.278V62.889a7.143,7.143,0,0,1,3.334-6,7.292,7.292,0,0,1,4.193-1.313ZM66.17,67.835a6.241,6.241,0,0,0,3.009.112,6.9,6.9,0,0,1,2.244-.672l.073.012.067.032a1.463,1.463,0,0,1,.706.613,1.211,1.211,0,0,1-.494,1.72l-.223.126a7.592,7.592,0,0,1-7.583-.1A6.957,6.957,0,0,1,61.22,67l-.156-.264a7.415,7.415,0,0,1,2.793-10.2l.358-.2a7.505,7.505,0,0,1,7.23-.071A7.015,7.015,0,0,1,74.5,59.029l.129.22c.522.886-.154,1.658-.853,2.185-.811.612-1.63,1.349-2.407,2.005q-2.6,2.2-5.2,4.4Zm-2.243-1.542q2.907-2.439,5.81-4.886c.661-.557,1.385-1.136,2.04-1.722a5.171,5.171,0,0,0-2.151-1.394,5.025,5.025,0,0,0-4.374.407,4.81,4.81,0,0,0-2.511,4.673,4.415,4.415,0,0,0,.679,2.244A5.917,5.917,0,0,0,63.927,66.294Zm-14.1-51.211h7.708v7.709h3.9a17.239,17.239,0,0,0,5.355-.879,13.864,13.864,0,0,0,2.6-1.151,9.326,9.326,0,0,1-1.807-4.875c-.222-2.353.263-5.416,1.89-7.257l.81-.917.965.76c2.431,1.911,4.475,4.581,4.835,7.624a12.014,12.014,0,0,1,8.943.814l1.058.6-.557,1.064c-2.182,4.166-6.744,5.457-11.2,5.228-6.673,16.262-21.2,23.961-38.817,23.961-9.1,0-17.45-3.329-22.205-11.229l-.078-.129-.693-1.379a21.451,21.451,0,0,1-1.779-11.094l.109-1.14h6.591V15.083h7.707V7.541H40.582V0h9.249Z" transform="translate(-0.115 0)" fill="#1d91b4" fill-rule="evenodd"/>
      <path id="Path_214" data-name="Path 214" d="M97.67,37.52c.515-4.1-2.479-7.328-4.335-8.859-2.139,2.538-2.472,9.189.885,11.99-1.873,1.707-5.82,3.254-9.861,3.254H35.166a21.754,21.754,0,0,0,2.039,11.727l.56,1.051a19.52,19.52,0,0,0,1.16,1.786q3.034.2,5.593.141h0a26.779,26.779,0,0,0,8.161-1.219.588.588,0,0,1,.734.381.611.611,0,0,1-.347.765c-.276.1-.563.19-.86.277h0a25.066,25.066,0,0,1-5.641.943c.134,0-.14.021-.14.021-.077.005-.174.017-.251.021-.889.051-1.848.062-2.829.062-1.073,0-2.129-.021-3.311-.083L40,59.8c4.1,4.727,10.508,7.562,18.541,7.562,17,0,31.423-7.734,37.809-25.1,4.53.477,8.885-.709,10.865-4.676a10.445,10.445,0,0,0-9.548-.068" transform="translate(-22.986 -18.789)" fill="#22a0c8" fill-rule="evenodd"/>
      <path id="Path_215" data-name="Path 215" d="M105.173,37.52c.528-4.1-2.543-7.328-4.448-8.859-2.2,2.538-2.536,9.189.908,11.99-1.922,1.707-5.972,3.254-10.119,3.254H44.025c-.206,6.629,2.254,11.661,6.607,14.7h0a28.138,28.138,0,0,0,8.374-1.219.607.607,0,0,1,.4,1.146c-.283.1-.578.19-.882.277h0a27.686,27.686,0,0,1-5.943.984l-.057-.053c5.937,3.046,14.546,3.035,24.417-.757A68.621,68.621,0,0,0,105.489,37.37q-.162.073-.316.15" transform="translate(-30.738 -18.789)" fill="#37b1d9" fill-rule="evenodd"/>
      <path id="Path_216" data-name="Path 216" d="M35.645,88.186a20.176,20.176,0,0,0,2,6.467l.574,1.051a19.437,19.437,0,0,0,1.19,1.786q3.114.2,5.74.141a28.138,28.138,0,0,0,8.374-1.219.607.607,0,0,1,.4,1.146c-.283.1-.578.19-.882.277h0A27.694,27.694,0,0,1,47.1,98.8c-.08,0-.218.006-.3.01-.911.051-1.886.082-2.893.082-1.1,0-2.226-.021-3.438-.083,4.206,4.727,10.823,7.573,19.066,7.573,14.935,0,27.93-5.669,35.471-18.195Z" transform="translate(-23.367 -59.524)" fill="#1b81a5" fill-rule="evenodd"/>
      <path id="Path_217" data-name="Path 217" d="M45.367,88.186A15.158,15.158,0,0,0,51.52,97.63a28.138,28.138,0,0,0,8.374-1.219.607.607,0,0,1,.4,1.146c-.283.1-.578.19-.882.277h0a28.109,28.109,0,0,1-5.974.964c5.937,3.045,14.521,3,24.391-.79A64.462,64.462,0,0,0,94.7,88.186Z" transform="translate(-30.501 -59.372)" fill="#1d91b4" fill-rule="evenodd"/>
      <path id="Path_218" data-name="Path 218" d="M55.26,34.553h6.826V41.38H55.26Zm.569.569h.539v5.689h-.539Zm1.013,0h.56v5.689h-.56V35.122Zm1.034,0h.56v5.689h-.56Zm1.035,0h.56v5.689h-.56Zm1.034,0h.56v5.689h-.56Zm1.034,0h.539v5.689h-.539Zm2.158-8.445h6.827V33.5H63.136V26.677Zm.569.569h.538v5.688h-.538Zm1.013,0h.56v5.688h-.56V27.246Zm1.034,0h.56v5.688h-.56Zm1.034,0h.56v5.688h-.56Zm1.034,0h.56v5.688h-.56Zm1.034,0h.539v5.688h-.539Z" transform="translate(-36.715 -17.488)" fill="#23a3c2" fill-rule="evenodd"/>
      <path id="Path_219" data-name="Path 219" d="M78.125,49.543h6.827v6.826H78.125V49.543Zm.569.569h.538V55.8h-.538Zm1.013,0h.56V55.8h-.56V50.112Zm1.034,0h.56V55.8h-.56Zm1.034,0h.56V55.8h-.56Zm1.034,0h.56V55.8h-.56Zm1.034,0h.539V55.8h-.539Z" transform="translate(-51.839 -33.277)" fill="#34bbde" fill-rule="evenodd"/>
      <path id="Path_220" data-name="Path 220" d="M100.993,49.543h6.826v6.826h-6.826Zm.569.569h.538V55.8h-.538Zm1.013,0h.56V55.8h-.56Zm1.034,0h.56V55.8h-.56Zm1.034,0h.56V55.8h-.56Zm1.034,0h.561V55.8h-.561Zm1.034,0h.539V55.8h-.539Z" transform="translate(-67.013 -33.277)" fill="#23a3c2" fill-rule="evenodd"/>
      <path id="Path_221" data-name="Path 221" d="M100.993,26.677h6.826V33.5h-6.826Zm.569.569h.538v5.688h-.538Zm1.013,0h.56v5.688h-.56Zm1.034,0h.56v5.688h-.56Zm1.034,0h.56v5.688h-.56Zm1.034,0h.561v5.688h-.561Zm1.034,0h.539v5.688h-.539Zm2.158,7.307H115.7V41.38h-6.826Zm.569.569h.538v5.689h-.538Zm1.013,0h.56v5.689h-.56Zm1.034,0h.56v5.689h-.56Zm1.034,0h.56v5.689h-.56Zm1.034,0h.56v5.689h-.56Zm1.034,0h.539v5.689h-.539Z" transform="translate(-67.099 -17.488)" fill="#34bbde" fill-rule="evenodd"/>
      <path id="Path_222" data-name="Path 222" d="M123.859,26.677h6.826V33.5h-6.826Zm.569.569h.538v5.688h-.538Zm1.013,0H126v5.688h-.56Zm1.034,0h.56v5.688h-.56Zm1.034,0h.56v5.688h-.56Zm1.034,0h.56v5.688h-.56Zm1.034,0h.539v5.688h-.539Z" transform="translate(-82.185 -17.488)" fill="#23a3c2" fill-rule="evenodd"/>
      <path id="Path_223" data-name="Path 223" d="M123.859,3.81h6.826v6.827h-6.826Zm.569.569h.538v5.689h-.538V4.378Zm1.013,0H126v5.689h-.56V4.378Zm1.034,0h.56v5.689h-.56V4.378Zm1.034,0h.56v5.689h-.56V4.378Zm1.034,0h.56v5.689h-.56V4.378Zm1.034,0h.539v5.689h-.539V4.378Z" transform="translate(-82.185 -2.498)" fill="#34bbde" fill-rule="evenodd"/>
      <path id="Path_224" data-name="Path 224" d="M146.725,49.543h6.826v6.826h-6.826Zm.568.569h.539V55.8h-.539V50.112Zm1.013,0h.56V55.8h-.56V50.112Zm1.035,0h.56V55.8h-.56Zm1.034,0h.56V55.8h-.56Zm1.035,0h.56V55.8h-.56Zm1.034,0h.539V55.8h-.539Z" transform="translate(-97.358 -33.277)" fill="#23a3c2" fill-rule="evenodd"/>
      <path id="Path_225" data-name="Path 225" d="M93.119,101.492a1.883,1.883,0,1,1-1.884,1.883,1.883,1.883,0,0,1,1.884-1.883" transform="translate(-60.512 -68.099)" fill="#d3ecec" fill-rule="evenodd"/>
      <path id="Path_226" data-name="Path 226" d="M32.593,87.676a1.289,1.289,0,0,1,.478.091.556.556,0,0,0-.25.618.534.534,0,0,0,.991.122,1.368,1.368,0,0,1-.381,1.559,1.3,1.3,0,0,1-1.57.08,1.364,1.364,0,0,1-.53-1.513,1.323,1.323,0,0,1,1.262-.958M0,83.239H85.719c-1.866-.484-5.9-1.137-5.239-3.637-3.394,4.014-11.578,2.816-13.644.837-2.3,3.409-15.691,2.113-16.625-.543-2.884,3.459-11.819,3.459-14.7,0-.935,2.656-14.325,3.952-16.625.543C16.818,82.418,8.634,83.616,5.24,79.6,5.906,82.1,1.867,82.756,0,83.24" transform="translate(0 -53.548)" fill="#364548" fill-rule="evenodd"/>
      <path id="Path_227" data-name="Path 227" d="M70.463,124.7a16.588,16.588,0,0,1-8.648-8.506,28.892,28.892,0,0,1-6.235.946q-1.367.076-2.876.077-1.74,0-3.666-.1c4.277,4.275,9.539,7.566,19.281,7.625q1.079,0,2.144-.041" transform="translate(-32.624 -78.097)" fill="#bdd9d7" fill-rule="evenodd"/>
      <path id="Path_228" data-name="Path 228" d="M76,119.225a16.349,16.349,0,0,1-1.731-3.031,28.873,28.873,0,0,1-6.236.947A19.853,19.853,0,0,0,76,119.225" transform="translate(-45.149 -77.945)" fill="#d3ecec" fill-rule="evenodd"/>
    </g>
    <g id="expressjs-ar21" transform="translate(908 613.007)">
      <path id="Path_229" data-name="Path 229" d="M34.492,64.48V43.151H35.65v3.355a4.388,4.388,0,0,0,.378-.473,5.734,5.734,0,0,1,5.23-3.245A6.142,6.142,0,0,1,47.3,46.034a10.428,10.428,0,0,1,.252,9.562c-1.174,2.631-4.072,3.938-7.175,3.458A5.8,5.8,0,0,1,35.744,56V64.48ZM35.65,50.7c.1,1.04.142,1.78.26,2.5.457,2.851,2.142,4.545,4.789,4.852A5.443,5.443,0,0,0,46.677,54.6a9.27,9.27,0,0,0-.2-7.624,5.332,5.332,0,0,0-5.616-3.1A5.191,5.191,0,0,0,36.217,47.7,26.3,26.3,0,0,0,35.65,50.7Z" transform="translate(-4.247 -42.724)" fill="#fff"/>
      <path id="Path_230" data-name="Path 230" d="M74.139,53.594a6.238,6.238,0,0,1-6.1,5.513c-4.852.244-7.128-2.977-7.49-6.695A10.727,10.727,0,0,1,61.5,46.5a6.592,6.592,0,0,1,6.86-3.678,6.3,6.3,0,0,1,5.592,4.8,32.363,32.363,0,0,1,.543,3.544H61.741c-.236,3.371,1.575,6.081,4.143,6.734,3.2.788,5.931-.6,6.923-3.639C73.028,53.483,73.43,53.373,74.139,53.594Zm-12.4-3.5h11.4c-.071-3.592-2.308-6.191-5.34-6.23C64.364,43.8,61.891,46.308,61.741,50.089Z" transform="translate(-6.182 -42.723)" fill="#fff"/>
      <path id="Path_231" data-name="Path 231" d="M77.775,53.669h1.118a4.482,4.482,0,0,0,2.631,3.859,6.876,6.876,0,0,0,5.97-.158,2.686,2.686,0,0,0,1.575-2.639A2.434,2.434,0,0,0,87.431,52.3c-1.229-.457-2.536-.709-3.789-1.111a27.764,27.764,0,0,1-3.812-1.394c-2.016-.985-2.142-4.82.142-6.033a8.042,8.042,0,0,1,7.687-.118,4.048,4.048,0,0,1,2.048,4.127h-.961c0-.047-.087-.087-.087-.134-.118-3.064-2.686-4.009-5.443-3.741a7.223,7.223,0,0,0-2.363.717,2.522,2.522,0,0,0,.2,4.584c1.213.441,2.481.725,3.726,1.071,1,.276,2.04.457,3.009.788a3.552,3.552,0,0,1,2.442,3.206A3.789,3.789,0,0,1,88.2,58.2c-2.631,1.489-6.963,1.095-8.892-.788a5.253,5.253,0,0,1-1.528-3.741Z" transform="translate(-7.471 -42.72)" fill="#fff"/>
      <path id="Path_232" data-name="Path 232" d="M105.6,47.772H104.55a2.6,2.6,0,0,0-.071-.386,3.426,3.426,0,0,0-2.788-3.292,6.876,6.876,0,0,0-4.419.213,2.686,2.686,0,0,0-1.945,2.56,2.473,2.473,0,0,0,1.89,2.489c1.575.488,3.19.788,4.789,1.229a13.389,13.389,0,0,1,1.528.465,3.938,3.938,0,0,1,.213,7.333,8.766,8.766,0,0,1-7.089.071A4.915,4.915,0,0,1,93.7,53.679h1.024a5.742,5.742,0,0,0,8.743,3.655,2.812,2.812,0,0,0,1.512-2.631,2.434,2.434,0,0,0-1.662-2.418c-1.229-.457-2.536-.7-3.789-1.1A27.906,27.906,0,0,1,95.689,49.8c-1.969-.969-2.127-4.773.118-5.986a7.931,7.931,0,0,1,7.813-.087A4.119,4.119,0,0,1,105.6,47.772Z" transform="translate(-8.656 -42.722)" fill="#fff"/>
      <path id="Path_233" data-name="Path 233" d="M31.318,58.745a1.8,1.8,0,0,1-2.237-.851c-1.284-1.922-2.7-3.757-4.064-5.632l-.591-.788C22.8,53.649,21.181,55.736,19.7,57.9a1.733,1.733,0,0,1-2.127.835l6.088-8.168L18,43.189a1.882,1.882,0,0,1,2.245.788c1.315,1.922,2.772,3.757,4.222,5.7,1.457-1.93,2.9-3.773,4.245-5.679a1.693,1.693,0,0,1,2.111-.788l-2.2,2.914c-.985,1.3-1.953,2.607-2.977,3.875a.788.788,0,0,0,0,1.174c1.882,2.5,3.749,5,5.671,7.569Z" transform="translate(-2.987 -42.746)" fill="#fff"/>
      <path id="Path_234" data-name="Path 234" d="M59.774,43.113v1.1a5.71,5.71,0,0,0-6.081,5.9v8.664H52.568v-15.6h1.1v3.2C55.033,44.042,57.136,43.176,59.774,43.113Z" transform="translate(-5.593 -42.749)" fill="#fff"/>
      <path id="Path_235" data-name="Path 235" d="M1.813,50.44c.165-.788.268-1.646.5-2.45a6.82,6.82,0,0,1,10.735-3.859c2.237,1.756,2.8,4.245,2.686,7.049H3.128c-.2,5.009,3.41,8.034,8.034,6.49a4.8,4.8,0,0,0,3.048-3.395c.244-.788.638-.922,1.386-.693a6.4,6.4,0,0,1-3.056,4.671,7.4,7.4,0,0,1-8.625-1.1A7.758,7.758,0,0,1,1.978,52.6a3.773,3.773,0,0,0-.158-.788q-.008-.7-.008-1.37ZM3.144,50.1h11.4c-.071-3.631-2.363-6.207-5.419-6.23-3.4-.047-5.836,2.473-5.986,6.214Z" transform="translate(-1.813 -42.72)" fill="#fff"/>
    </g>
    <g id="Group_21" data-name="Group 21" transform="translate(-93.643 45)">
      <g id="Group_20" data-name="Group 20">
        <g id="Group_4" data-name="Group 4" transform="translate(719.317 552.679)">
          <path id="Path_203" data-name="Path 203" d="M173.355,168.853a.536.536,0,0,1-.267-.071l-.85-.5c-.127-.071-.065-.1-.023-.111a1.716,1.716,0,0,0,.384-.175.064.064,0,0,1,.063,0l.653.387a.086.086,0,0,0,.079,0l2.545-1.469a.08.08,0,0,0,.039-.069v-2.937a.082.082,0,0,0-.039-.07l-2.544-1.468a.078.078,0,0,0-.078,0l-2.544,1.468a.081.081,0,0,0-.04.069v2.937a.078.078,0,0,0,.04.068l.7.4c.378.189.61-.034.61-.258v-2.9a.073.073,0,0,1,.074-.073h.322a.073.073,0,0,1,.073.073v2.9a.706.706,0,0,1-.754.794,1.091,1.091,0,0,1-.587-.159l-.668-.385a.538.538,0,0,1-.267-.464v-2.937a.535.535,0,0,1,.267-.464l2.548-1.47a.558.558,0,0,1,.535,0l2.545,1.471a.537.537,0,0,1,.267.464v2.937a.539.539,0,0,1-.267.464l-2.545,1.47a.535.535,0,0,1-.268.071" transform="translate(-159.424 -151.591)" fill="#689f63"/>
          <path id="Path_204" data-name="Path 204" d="M211.189,186.729c-1.114,0-1.347-.511-1.347-.94a.073.073,0,0,1,.074-.073h.329a.074.074,0,0,1,.073.062c.05.335.2.5.871.5.536,0,.765-.121.765-.406,0-.164-.065-.285-.9-.367-.7-.069-1.128-.222-1.128-.78,0-.514.433-.819,1.159-.819.815,0,1.219.283,1.27.891a.074.074,0,0,1-.02.057.076.076,0,0,1-.054.024h-.331a.073.073,0,0,1-.071-.057c-.08-.352-.272-.465-.8-.465-.586,0-.654.2-.654.357,0,.185.08.24.87.344s1.154.25,1.154.8-.463.872-1.269.872m3.1-3.115h.085a.074.074,0,0,0,.083-.078c0-.075-.052-.075-.08-.075h-.088Zm-.1-.241h.189c.065,0,.192,0,.192.145a.126.126,0,0,1-.1.135c.076.005.081.055.091.125a.537.537,0,0,0,.029.145h-.117c0-.025-.021-.166-.021-.173-.008-.031-.018-.047-.057-.047h-.1v.22h-.106Zm-.227.274a.411.411,0,1,0,.41-.41.412.412,0,0,0-.41.41m.9,0a.491.491,0,1,1-.491-.491.492.492,0,0,1,.491.491" transform="translate(-196.472 -171.491)" fill="#689f63"/>
          <path id="Path_205" data-name="Path 205" d="M6.049,5.769a.326.326,0,0,0-.163-.283l-2.7-1.553a.315.315,0,0,0-.148-.043H3.011a.321.321,0,0,0-.149.043L.163,5.486A.328.328,0,0,0,0,5.77L.006,9.952a.161.161,0,0,0,.081.141.154.154,0,0,0,.162,0l1.6-.919a.329.329,0,0,0,.163-.283V6.937a.325.325,0,0,1,.163-.282l.683-.393a.324.324,0,0,1,.163-.044.318.318,0,0,1,.162.044l.683.393a.325.325,0,0,1,.163.282V8.891a.33.33,0,0,0,.163.283l1.6.918a.159.159,0,0,0,.163,0,.164.164,0,0,0,.081-.141ZM18.783,7.947a.081.081,0,0,1-.041.07l-.927.534a.082.082,0,0,1-.081,0l-.927-.534a.081.081,0,0,1-.041-.07V6.877a.082.082,0,0,1,.04-.071l.926-.535a.082.082,0,0,1,.082,0l.927.535a.081.081,0,0,1,.041.071Zm.25-7.926a.163.163,0,0,0-.242.143V4.3a.114.114,0,0,1-.171.1l-.676-.389a.325.325,0,0,0-.326,0l-2.7,1.558a.325.325,0,0,0-.163.282V8.971a.326.326,0,0,0,.163.282l2.7,1.559a.327.327,0,0,0,.326,0l2.7-1.56a.327.327,0,0,0,.163-.282V1.2a.327.327,0,0,0-.168-.285Zm8.989,6.828a.326.326,0,0,0,.162-.282V5.811a.326.326,0,0,0-.162-.282L25.34,3.972a.326.326,0,0,0-.327,0l-2.7,1.558a.325.325,0,0,0-.163.282V8.928a.327.327,0,0,0,.164.284L25,10.74a.325.325,0,0,0,.32,0l1.622-.9a.163.163,0,0,0,0-.284L24.225,8a.162.162,0,0,1-.082-.141V6.88a.162.162,0,0,1,.082-.141l.845-.487a.161.161,0,0,1,.162,0l.845.487a.162.162,0,0,1,.082.141v.768a.163.163,0,0,0,.245.141Zm0,0" transform="translate(0 0)" fill-rule="evenodd"/>
          <path id="Path_206" data-name="Path 206" d="M386.463,105.076a.062.062,0,0,1,.062,0l.518.3a.063.063,0,0,1,.031.054v.6a.063.063,0,0,1-.031.054l-.518.3a.062.062,0,0,1-.062,0l-.518-.3a.062.062,0,0,1-.032-.054v-.6a.062.062,0,0,1,.031-.054Zm0,0" transform="translate(-361.325 -98.373)" fill="#689f63" fill-rule="evenodd"/>
          <g id="Group_1" data-name="Group 1" transform="translate(7.394 3.944)" clip-path="url(#clip-path)">
            <path id="Path_207" data-name="Path 207" d="M163.22,192.31l-7.564-3.707-3.878,7.912,7.564,3.708Zm0,0" transform="translate(-154.491 -190.981)" fill="url(#linear-gradient)"/>
          </g>
          <g id="Group_2" data-name="Group 2" transform="translate(7.46 3.954)" clip-path="url(#clip-path-2)">
            <path id="Path_209" data-name="Path 209" d="M144.07,187.319l5.341,7.228,7.063-5.218-5.341-7.228Zm0,0" transform="translate(-147.34 -184.902)" fill="url(#linear-gradient-2)"/>
          </g>
          <g id="Group_3" data-name="Group 3" transform="translate(7.564 3.945)" clip-path="url(#clip-path-3)">
            <path id="Path_211" data-name="Path 211" d="M197.02,225.934v6.845h5.841v-6.845Zm0,0" transform="translate(-197.02 -225.934)" fill="url(#linear-gradient-3)"/>
          </g>
        </g>
        <path id="Path_236" data-name="Path 236" d="M108.4,0h4.331V4.293h3.992V0h4.331V12.993h-4.331V8.662h-3.954v4.331H108.4m18.378-8.662h-3.823V0h11.995V4.331h-3.841v8.662h-4.331M136.853,0h4.538l2.787,4.576L146.965,0H151.5V12.993h-4.331V6.553l-3.032,4.67-3.032-4.67v6.44h-4.256M153.649,0h4.331V8.7h6.139v4.293h-10.47" transform="translate(576.608 521.089)" fill="#fff"/>
        <path id="Path_237" data-name="Path 237" d="M80.814,170.348,74.6,100.6h68.317L136.7,170.31l-28,7.758" transform="translate(604.043 439.432)" fill="#e44d26"/>
        <path id="Path_238" data-name="Path 238" d="M256,196.812V131h27.925L278.6,190.5" transform="translate(456.801 414.756)" fill="#f16529"/>
        <path id="Path_239" data-name="Path 239" d="M142,176.3h21.467v8.549H151.378l.791,8.756h11.3v8.53H144.335m.377,4.293H153.3l.6,6.835,9.566,2.561v8.926l-17.55-4.9" transform="translate(549.335 377.987)" fill="#ebebeb"/>
        <path id="Path_240" data-name="Path 240" d="M277.229,176.3H255.8v8.549h20.638m-.772,8.756H255.8v8.549h10.545l-1,11.11-9.547,2.561v8.888l17.512-4.858" transform="translate(456.964 377.987)" fill="#fff"/>
      </g>
    </g>
    <g id="Group_19" data-name="Group 19" transform="translate(-93.15 45)">
      <g id="Group_18" data-name="Group 18">
        <g id="Group_8" data-name="Group 8" transform="translate(767.15 521.387)">
          <path id="polygon2989" d="M144.065,100.62l-6.325,70.861-28.433,7.883-28.355-7.871L74.633,100.62Z" transform="translate(-74.633 -81.36)" fill="#264de4"/>
          <path id="polygon2991" d="M278.975,191.448l5.406-60.554H256v66.924Z" transform="translate(-221.284 -105.839)" fill="#2965f1"/>
          <path id="polygon2993" d="M150.31,268.217l.779,8.692H170.54v-8.692Z" transform="translate(-135.824 -216.877)" fill="#ebebeb"/>
          <path id="polygon2995" d="M163.928,176.3h-21.8l.79,8.692h21.006Z" transform="translate(-129.212 -142.558)" fill="#ebebeb"/>
          <path id="polygon2997" d="M175.472,354.913v-9.044l-.038.01-9.681-2.614-.619-6.932h-8.726l1.218,13.648,17.805,4.943Z" transform="translate(-140.756 -271.954)" fill="#ebebeb"/>
          <path id="path2999" d="M160,0h10.528V4.4H164.4v4.4h6.125v4.4H160Z" transform="translate(-143.66)" fill="#fff"/>
          <path id="path3001" d="M226,0h10.528V3.828H230.4v.766h6.125V13.4H226V9.379h6.125V8.614H226Z" transform="translate(-197.026)" fill="#fff"/>
          <path id="path3003" d="M292,0h10.528V3.828H296.4v.766h6.125V13.4H292V9.379h6.125V8.614H292Z" transform="translate(-250.393)" fill="#fff"/>
          <path id="polygon3005" d="M266.546,202.59l-1.009,11.273-9.695,2.617v9.043l17.819-4.939.131-1.469,2.043-22.884.212-2.334,1.569-17.593H255.843V185h12.248l-.791,8.9H255.843v8.692Z" transform="translate(-221.157 -142.558)" fill="#fff"/>
        </g>
      </g>
    </g>
    <g id="Group_17" data-name="Group 17" transform="translate(763 576.834)">
      <g id="Group_16" data-name="Group 16" transform="translate(0)">
        <g id="Group_13" data-name="Group 13" transform="translate(32.93 17.567)">
          <g id="Group_9" data-name="Group 9" clip-path="url(#clip-path-4)">
            <path id="Path_245" data-name="Path 245" d="M202.737,205.115,169.051,188.6l-17.273,35.236,33.686,16.513Zm0,0" transform="translate(-163.859 -199.194)" fill="url(#linear-gradient)"/>
          </g>
        </g>
        <g id="Group_15" data-name="Group 15">
          <g id="Group_14" data-name="Group 14">
            <g id="Group_10" data-name="Group 10" transform="translate(33.226 17.608)" clip-path="url(#clip-path-5)">
              <path id="Path_247" data-name="Path 247" d="M144.07,205.342l23.786,32.194,31.458-23.242L175.526,182.1Zm0,0" transform="translate(-158.635 -194.577)" fill="url(#linear-gradient-2)"/>
            </g>
            <g id="Group_12" data-name="Group 12">
              <path id="Path_241" data-name="Path 241" d="M184,192.843a2.386,2.386,0,0,1-1.189-.318l-3.785-2.241c-.565-.316-.289-.428-.1-.492a7.642,7.642,0,0,0,1.711-.78.287.287,0,0,1,.282.02l2.907,1.725a.384.384,0,0,0,.351,0l11.336-6.544a.357.357,0,0,0,.173-.306V170.826a.364.364,0,0,0-.175-.312l-11.332-6.538a.349.349,0,0,0-.349,0L172.5,170.514a.361.361,0,0,0-.18.309V183.9a.349.349,0,0,0,.176.3L175.6,186c1.686.843,2.716-.15,2.716-1.149V171.941a.323.323,0,0,1,.329-.326h1.436a.325.325,0,0,1,.326.326v12.917c0,2.247-1.226,3.538-3.357,3.538a4.86,4.86,0,0,1-2.613-.709l-2.974-1.714a2.4,2.4,0,0,1-1.189-2.069V170.823a2.382,2.382,0,0,1,1.189-2.066l11.348-6.546a2.486,2.486,0,0,1,2.384,0l11.333,6.549a2.392,2.392,0,0,1,1.189,2.066v13.081a2.4,2.4,0,0,1-1.189,2.066l-11.333,6.546a2.383,2.383,0,0,1-1.195.318" transform="translate(-121.956 -115.964)" fill="#689f63"/>
              <path id="Path_242" data-name="Path 242" d="M215.842,199.052c-4.96,0-6-2.277-6-4.187a.326.326,0,0,1,.328-.326h1.464a.328.328,0,0,1,.323.278c.221,1.492.88,2.245,3.879,2.245,2.389,0,3.405-.54,3.405-1.807,0-.729-.289-1.271-4-1.634-3.1-.306-5.023-.99-5.023-3.473,0-2.287,1.93-3.649,5.162-3.649,3.629,0,5.428,1.26,5.655,3.967a.33.33,0,0,1-.088.253.337.337,0,0,1-.241.1h-1.473a.325.325,0,0,1-.318-.255c-.355-1.569-1.212-2.071-3.541-2.071-2.608,0-2.911.908-2.911,1.589,0,.826.358,1.067,3.876,1.532,3.485.463,5.139,1.115,5.139,3.564,0,2.469-2.06,3.885-5.652,3.885m13.808-13.873h.38a.33.33,0,0,0,.372-.346c0-.335-.23-.335-.358-.335h-.392Zm-.463-1.073h.843c.289,0,.857,0,.857.647a.563.563,0,0,1-.463.6c.338.023.36.244.406.556a2.391,2.391,0,0,0,.128.647h-.519c-.014-.113-.094-.738-.094-.772-.034-.139-.082-.207-.255-.207h-.428v.982h-.474Zm-1.013,1.22a1.832,1.832,0,1,0,1.825-1.827,1.834,1.834,0,0,0-1.825,1.827m4.018.009a2.185,2.185,0,1,1-2.185-2.185,2.191,2.191,0,0,1,2.185,2.185" transform="translate(-150.297 -131.187)" fill="#689f63"/>
              <path id="Path_243" data-name="Path 243" d="M26.939,25.695a1.451,1.451,0,0,0-.726-1.261L14.194,17.518a1.4,1.4,0,0,0-.661-.19h-.124a1.428,1.428,0,0,0-.664.19L.727,24.433A1.463,1.463,0,0,0,0,25.7L.026,44.322a.715.715,0,0,0,.36.627.687.687,0,0,0,.721,0l7.145-4.092a1.465,1.465,0,0,0,.726-1.26V30.9A1.447,1.447,0,0,1,9.7,29.639l3.042-1.752a1.443,1.443,0,0,1,.726-.2,1.418,1.418,0,0,1,.722.195l3.04,1.751a1.448,1.448,0,0,1,.726,1.257v8.7a1.47,1.47,0,0,0,.728,1.26l7.141,4.089a.709.709,0,0,0,.726,0,.729.729,0,0,0,.36-.627Zm56.715,9.7a.361.361,0,0,1-.182.314l-4.128,2.38a.364.364,0,0,1-.362,0l-4.129-2.38a.36.36,0,0,1-.182-.314V30.626a.365.365,0,0,1,.179-.315l4.126-2.384a.367.367,0,0,1,.366,0l4.129,2.384a.362.362,0,0,1,.182.315ZM84.769.092a.726.726,0,0,0-1.08.635V19.171a.508.508,0,0,1-.762.44l-3.011-1.734a1.449,1.449,0,0,0-1.451,0L66.443,24.816a1.449,1.449,0,0,0-.726,1.254V39.952a1.453,1.453,0,0,0,.726,1.257l12.023,6.944a1.458,1.458,0,0,0,1.452,0l12.023-6.946a1.455,1.455,0,0,0,.726-1.257V5.353a1.455,1.455,0,0,0-.746-1.268ZM124.806,30.5a1.452,1.452,0,0,0,.722-1.255V25.882a1.452,1.452,0,0,0-.723-1.256l-11.946-6.935a1.451,1.451,0,0,0-1.456,0l-12.02,6.938a1.449,1.449,0,0,0-.726,1.257V39.762a1.457,1.457,0,0,0,.732,1.263l11.943,6.807a1.448,1.448,0,0,0,1.424.009l7.225-4.015a.725.725,0,0,0,.006-1.263l-12.094-6.941a.72.72,0,0,1-.366-.627V30.642a.72.72,0,0,1,.363-.629l3.763-2.171a.717.717,0,0,1,.724,0l3.766,2.171a.723.723,0,0,1,.363.627v3.422a.724.724,0,0,0,1.09.627Zm0,0" transform="translate(0 0)" fill-rule="evenodd"/>
              <path id="Path_244" data-name="Path 244" d="M388.36,105.1a.275.275,0,0,1,.278,0l2.307,1.331a.279.279,0,0,1,.139.241v2.665a.279.279,0,0,1-.139.241l-2.307,1.331a.275.275,0,0,1-.278,0l-2.306-1.331a.278.278,0,0,1-.142-.241v-2.665a.275.275,0,0,1,.139-.241Zm0,0" transform="translate(-276.406 -75.253)" fill="#689f63" fill-rule="evenodd"/>
              <g id="Group_11" data-name="Group 11" transform="translate(33.687 17.57)" clip-path="url(#clip-path-6)">
                <path id="Path_249" data-name="Path 249" d="M197.02,225.934v30.484h26.016V225.934Zm0,0" transform="translate(-197.02 -225.934)" fill="url(#linear-gradient-3)"/>
              </g>
            </g>
          </g>
        </g>
      </g>
    </g>
    <path id="iconfinder_icon-plus-round_211877" d="M99.684,80.156H86.618V67.09a3.234,3.234,0,0,0-6.462,0V80.156H67.09a3.234,3.234,0,0,0,0,6.462H80.156V99.684a3.234,3.234,0,0,0,6.462,0V86.618H99.684a3.234,3.234,0,0,0,0-6.462Z" transform="translate(1167 530.613)" fill="#fff"/>
    <text id="many_more" data-name="many
more" transform="translate(1330 609)" fill="#d3d3d3" font-size="35" font-family="HelveticaNeue-Thin, Helvetica Neue" font-weight="200"><tspan x="-39.533" y="0">many</tspan><tspan x="-37.065" y="35">more</tspan></text>
  </g>
</svg>
